<svg width="80" height="80" viewBox="0 0 80 80" fill="none" xmlns="http://www.w3.org/2000/svg">
<circle cx="40" cy="40" r="40" fill="white"/>
<circle cx="7.5" cy="42.5" r="1.5" fill="#C51934"/>
<circle cx="31.5" cy="65.5" r="1.5" fill="#FFAA1B"/>
<circle cx="65.5" cy="56.5" r="1.5" fill="#C51934"/>
<circle cx="71.5" cy="37.5" r="1.5" fill="#FFAA1B"/>
<circle cx="52.5" cy="15.5" r="1.5" fill="#C51934"/>
<circle cx="24.5" cy="14.5" r="1.5" fill="#FFAA1B"/>
<path fill-rule="evenodd" clip-rule="evenodd" d="M41.5185 29.4376C47.3522 29.4376 52.0814 34.1672 52.0814 40.0005C52.0814 45.8342 47.3522 50.5639 41.5185 50.5639C35.6852 50.5639 30.9556 45.8342 30.9556 40.0005C30.9556 34.1672 35.6852 29.4376 41.5185 29.4376ZM41.3871 33.8072V40.4564L46.5921 44.4901L45.2758 46.1947L39.2262 41.5071V33.8072H41.3871Z" fill="#C51934"/>
<path fill-rule="evenodd" clip-rule="evenodd" d="M23.9808 35.748C25.899 27.8086 33.0532 21.9597 41.51 21.9597C51.4724 21.9597 59.5507 30.0385 59.5507 40.0005C59.5507 49.9634 51.4729 58.0413 41.51 58.0413C35.4202 58.0413 29.774 54.9794 26.4309 49.8921L29.7111 47.7358C32.328 51.7176 36.7463 54.0987 41.51 54.0987C49.2959 54.0987 55.6077 47.7864 55.6077 40.0005C55.6077 32.2155 49.2954 25.9027 41.51 25.9027C35.2312 25.9027 29.8633 30.0177 28.0562 35.7499L29.5359 35.7513C30.6234 35.7494 31.3198 36.9631 30.7255 37.9057L26.8949 43.9931C26.3572 44.8681 25.0675 44.8927 24.5081 44.0049L20.7248 37.994C20.0492 37.0784 20.6907 35.7466 21.8591 35.7466L23.9808 35.748Z" fill="#FFAA1B"/>
</svg>
