<svg width="80" height="80" viewBox="0 0 80 80" fill="none" xmlns="http://www.w3.org/2000/svg">
<circle cx="40" cy="40" r="40" fill="white"/>
<circle cx="18.5" cy="21.5" r="1.5" fill="#C51934"/>
<circle cx="31.5" cy="61.5" r="1.5" fill="#FFAA1B"/>
<circle cx="53.5" cy="65.5" r="1.5" fill="#C51934"/>
<circle cx="70.5" cy="41.5" r="1.5" fill="#FFAA1B"/>
<circle cx="60.5" cy="17.5" r="1.5" fill="#C51934"/>
<circle cx="22.5" cy="16.5" r="1.5" fill="#FFAA1B"/>
<g clip-path="url(#clip0_3425_49033)">
<path fill-rule="evenodd" clip-rule="evenodd" d="M36.0797 39.7342C38.3388 40.2657 40.3322 38.2724 39.8006 36.0132L36.4784 32.8239L37.0099 32.691C41.5282 31.6279 45.2491 36.0132 43.7873 40.2657L58.9368 54.6179C61.8604 57.4086 57.4751 61.794 54.6844 58.8704L40.4651 43.588C36.2126 45.3156 31.6943 41.4617 32.7574 36.9435L32.8903 36.4119L36.0797 39.7342ZM55.7475 57.1428C56.6777 58.073 58.1395 56.6112 57.2093 55.681C56.279 54.7508 54.8172 56.2126 55.7475 57.1428Z" fill="#C51934"/>
<path fill-rule="evenodd" clip-rule="evenodd" d="M20.1329 35.8804L24.7841 34.6843C25.1827 33.4883 25.5814 32.4252 26.2458 31.3621L23.7209 27.2425C24.7841 25.9136 25.8472 24.8505 27.1761 23.7873L31.2957 26.3123C32.3588 25.6478 33.4219 25.2491 34.6179 24.8505L35.814 20.1993C36.6113 20.0664 37.4086 20.0664 38.206 20.0664C39.1362 20.0664 39.9336 20.0664 40.7309 20.1993L41.9269 24.8505C43.1229 25.2491 44.186 25.6478 45.2492 26.3123L49.3688 23.7873C50.6977 24.8505 51.7608 25.9136 52.8239 27.2425L50.299 31.3621C50.9635 32.4252 51.3621 33.4883 51.7608 34.6843L56.412 35.8804C56.412 36.6777 56.5448 37.475 56.5448 38.2724C56.5448 39.2026 56.412 40 56.412 40.7973L51.7608 41.9933C51.495 42.9235 51.0963 43.8538 50.6977 44.6511L46.8439 41.0631C47.2425 40.2657 47.3754 39.3355 47.3754 38.2724C47.3754 33.3554 43.2558 29.2358 38.206 29.2358C33.289 29.2358 29.1694 33.3554 29.1694 38.2724C29.1694 43.3222 33.289 47.4418 38.206 47.4418C39.402 47.4418 40.3322 47.176 41.3953 46.9103L44.8505 50.6312C43.9203 51.1628 42.99 51.5614 41.9269 51.8272L40.7309 56.4784C39.9336 56.4784 39.1362 56.6113 38.206 56.6113C37.4086 56.6113 36.6113 56.4784 35.814 56.4784L34.6179 51.8272C33.4219 51.4285 32.3588 51.0299 31.2957 50.3654L27.1761 52.8903C25.8472 51.8272 24.7841 50.7641 23.7209 49.4352L26.2458 45.3156C25.5814 44.2525 25.1827 43.1893 24.7841 41.9933L20.1329 40.7973C20 40 20 39.2026 20 38.2724C20 37.475 20 36.6777 20.1329 35.8804Z" fill="#FFAA1B"/>
</g>
<defs>
<clipPath id="clip0_3425_49033">
<rect width="40" height="40" fill="white" transform="translate(20 20)"/>
</clipPath>
</defs>
</svg>
