<svg width="80" height="80" viewBox="0 0 80 80" fill="none" xmlns="http://www.w3.org/2000/svg">
<circle cx="40" cy="40" r="40" fill="white"/>
<circle cx="18.5" cy="21.5" r="1.5" fill="#C51934"/>
<circle cx="31.5" cy="61.5" r="1.5" fill="#FFAA1B"/>
<circle cx="53.5" cy="65.5" r="1.5" fill="#C51934"/>
<circle cx="70.5" cy="41.5" r="1.5" fill="#FFAA1B"/>
<circle cx="60.5" cy="17.5" r="1.5" fill="#C51934"/>
<circle cx="22.5" cy="16.5" r="1.5" fill="#FFAA1B"/>
<g>
<path d="M51.7188 22.4219H42.3438C37.821 22.4219 34.1406 26.1023 34.1406 30.625C34.1406 34.7506 37.202 38.1747 41.1719 38.7446V42.3438C41.1719 42.8175 41.4568 43.2455 41.8952 43.4263C42.3274 43.6067 42.8345 43.51 43.1723 43.1723L47.5165 38.8281H51.7188C56.2415 38.8281 60 35.1477 60 30.625C60 26.1023 56.2415 22.4219 51.7188 22.4219ZM42.3438 31.7967C41.6964 31.7967 41.1719 31.272 41.1719 30.6248C41.1719 29.9777 41.6964 29.453 42.3438 29.453C42.9909 29.453 43.5156 29.9777 43.5156 30.6248C43.5156 31.272 42.9909 31.7967 42.3438 31.7967ZM47.0312 31.7967C46.3839 31.7967 45.8594 31.272 45.8594 30.6248C45.8594 29.9777 46.3839 29.453 47.0312 29.453C47.6784 29.453 48.2031 29.9777 48.2031 30.6248C48.2031 31.272 47.6784 31.7967 47.0312 31.7967ZM51.7188 31.7967C51.0714 31.7967 50.5469 31.272 50.5469 30.6248C50.5469 29.9777 51.0714 29.453 51.7188 29.453C52.3659 29.453 52.8906 29.9777 52.8906 30.6248C52.8906 31.272 52.3659 31.7967 51.7188 31.7967Z" fill="#FFAA1B"/>
<path d="M46.3281 57.5781C48.2667 57.5781 49.8438 56.0011 49.8438 54.0625V49.375C49.8438 48.8703 49.521 48.4228 49.0427 48.2638L42.0279 45.92C41.6845 45.8045 41.3092 45.857 41.0071 46.0562L38.0248 48.044C34.8662 46.538 31.1183 42.79 29.6122 39.6314L31.6 36.6491C31.8002 36.348 31.8506 35.9716 31.7362 35.6283L29.3924 28.6135C29.2334 28.1352 28.7859 27.8125 28.2812 27.8125H23.5156C21.577 27.8125 20 29.373 20 31.3116C20 44.8134 32.8264 57.5781 46.3281 57.5781Z" fill="#C51934"/>
</g>
</svg>
