<svg width="24" height="24" viewBox="0 0 24 24" fill="none" xmlns="http://www.w3.org/2000/svg">
<path d="M12.0027 9.05393C13.6762 9.05393 15.0344 10.3901 15.0344 12.0364C15.0344 12.4241 14.9556 12.788 14.8161 13.128L16.5866 14.8697C17.5022 14.1181 18.2237 13.1459 18.6663 12.0364C17.6174 9.41779 15.0283 7.56271 11.9966 7.56271C11.1478 7.56271 10.3353 7.71183 9.58343 7.98025L10.8931 9.26867C11.2387 9.13148 11.6086 9.05393 12.0027 9.05393ZM5.93934 7.42551L7.32179 8.78551L7.60071 9.0599C6.59419 9.82937 5.80595 10.8553 5.33301 12.0364C6.38197 14.655 8.97103 16.5101 12.0027 16.5101C12.9425 16.5101 13.8399 16.3311 14.6585 16.009L14.9131 16.2595L16.6897 18.0013L17.4597 17.2438L6.70939 6.66797L5.93934 7.42551ZM9.29238 10.7241L10.2322 11.6487C10.2019 11.7739 10.1837 11.9052 10.1837 12.0364C10.1837 13.0266 10.9962 13.8259 12.0027 13.8259C12.1361 13.8259 12.2695 13.808 12.3968 13.7781L13.3366 14.7027C12.9304 14.8995 12.4817 15.0188 12.0027 15.0188C10.3292 15.0188 8.97103 13.6827 8.97103 12.0364C8.97103 11.5652 9.09229 11.1238 9.29238 10.7241ZM11.9057 10.2588L13.8157 12.1378L13.8278 12.0424C13.8278 11.0522 13.0153 10.2529 12.0088 10.2529L11.9057 10.2588Z" fill="#353744"/>
<path d="M12.0027 9.05393C13.6762 9.05393 15.0344 10.3901 15.0344 12.0364C15.0344 12.4241 14.9556 12.788 14.8161 13.128L16.5866 14.8697C17.5022 14.1181 18.2237 13.1459 18.6663 12.0364C17.6174 9.41779 15.0283 7.56271 11.9966 7.56271C11.1478 7.56271 10.3353 7.71183 9.58343 7.98025L10.8931 9.26867C11.2387 9.13148 11.6086 9.05393 12.0027 9.05393ZM5.93934 7.42551L7.32179 8.78551L7.60071 9.0599C6.59419 9.82937 5.80595 10.8553 5.33301 12.0364C6.38197 14.655 8.97103 16.5101 12.0027 16.5101C12.9425 16.5101 13.8399 16.3311 14.6585 16.009L14.9131 16.2595L16.6897 18.0013L17.4597 17.2438L6.70939 6.66797L5.93934 7.42551ZM9.29238 10.7241L10.2322 11.6487C10.2019 11.7739 10.1837 11.9052 10.1837 12.0364C10.1837 13.0266 10.9962 13.8259 12.0027 13.8259C12.1361 13.8259 12.2695 13.808 12.3968 13.7781L13.3366 14.7027C12.9304 14.8995 12.4817 15.0188 12.0027 15.0188C10.3292 15.0188 8.97103 13.6827 8.97103 12.0364C8.97103 11.5652 9.09229 11.1238 9.29238 10.7241ZM11.9057 10.2588L13.8157 12.1378L13.8278 12.0424C13.8278 11.0522 13.0153 10.2529 12.0088 10.2529L11.9057 10.2588Z" fill="white" fill-opacity="0.32"/>
</svg>
