<svg width="80" height="80" viewBox="0 0 80 80" fill="none" xmlns="http://www.w3.org/2000/svg">
<circle cx="40" cy="40" r="40" fill="white"/>
<circle cx="11.5" cy="36.5" r="1.5" fill="#C51934"/>
<circle cx="26.5" cy="63.5" r="1.5" fill="#FFAA1B"/>
<circle cx="60.5" cy="54.5" r="1.5" fill="#C51934"/>
<circle cx="69.5" cy="44.5" r="1.5" fill="#FFAA1B"/>
<circle cx="61.5" cy="15.5" r="1.5" fill="#C51934"/>
<circle cx="36.5" cy="9.5" r="1.5" fill="#FFAA1B"/>
<path d="M40 37.2C43.92 37.2 47.12 34 47.12 30.12C47.12 26.2 43.92 23.04 40 23.04C36.08 23.04 32.92 26.24 32.92 30.12C32.88 34 36.08 37.2 40 37.2ZM39.4 26.4V25.52C39.4 25.4 39.48 25.32 39.6 25.32H40.4C40.52 25.32 40.6 25.4 40.6 25.52V26.4C41.68 26.44 42.6 27.28 42.68 28.32C42.68 28.44 42.6 28.52 42.48 28.52H41.68C41.6 28.52 41.52 28.44 41.48 28.36C41.4 27.92 41 27.56 40.52 27.56H39.44C38.92 27.56 38.48 27.96 38.44 28.48C38.4 29.04 38.84 29.48 39.4 29.48H40.44C41.64 29.48 42.64 30.44 42.64 31.64C42.64 32.8 41.68 33.72 40.52 33.76V34.64C40.52 34.76 40.44 34.84 40.32 34.84H39.52C39.4 34.84 39.32 34.76 39.32 34.64V33.76C38.24 33.72 37.32 32.88 37.24 31.84C37.24 31.72 37.32 31.64 37.44 31.64H38.24C38.32 31.64 38.4 31.72 38.44 31.8C38.52 32.24 38.92 32.6 39.4 32.6H40.48C41 32.6 41.44 32.2 41.48 31.68C41.52 31.12 41.08 30.68 40.52 30.68H39.48C38.28 30.68 37.28 29.72 37.28 28.52C37.32 27.36 38.24 26.4 39.4 26.4Z" fill="#FFAA1B"/>
<path d="M32.48 46.6001L30.44 46.1201L28.68 50.8801L28.12 48.1601H28.2C28.44 48.1601 28.68 47.9601 28.68 47.6801V47.0801C28.68 46.8401 28.48 46.6001 28.2 46.6001H27.12C26.88 46.6001 26.64 46.8001 26.64 47.0801V47.6801C26.64 47.9201 26.84 48.1601 27.12 48.1601H27.2L26.64 50.8801L24.88 46.1201L22.84 46.6001C21.8 46.8401 21.04 47.8001 21.04 48.8801L21 53.2801C21 54.0401 21.64 54.6801 22.4 54.6801H31.8L31.84 51.2001C31.84 49.6801 32.68 48.3601 34 47.7201C33.68 47.1601 33.12 46.7601 32.48 46.6001Z" fill="#C51934"/>
<path d="M58.96 48.8401C58.96 47.7601 58.2 46.8401 57.16 46.5601L55.12 46.0801L53.36 50.8401L52.8 48.1601H52.88C53.12 48.1601 53.36 47.9601 53.36 47.6801V47.0801C53.36 46.8401 53.16 46.6001 52.88 46.6001H51.8C51.56 46.6001 51.32 46.8001 51.32 47.0801V47.6801C51.32 47.9201 51.52 48.1601 51.8 48.1601H51.88L51.32 50.8801L49.56 46.1201L47.52 46.6001C46.88 46.7601 46.32 47.1601 46.04 47.7201C47.32 48.3601 48.2 49.6801 48.2 51.2001L48.24 54.6801H57.6C58.36 54.6801 59 54.0401 59 53.2801L58.96 48.8401Z" fill="#C51934"/>
<path d="M44.84 48.9199L42.8 48.4399L41 53.1999L40.44 50.4799H40.52C40.76 50.4799 41 50.2799 41 49.9999V49.3999C41 49.1599 40.8 48.9199 40.52 48.9199H39.44C39.2 48.9199 38.96 49.1199 38.96 49.3999V49.9999C38.96 50.2399 39.16 50.4799 39.44 50.4799H39.52L39 53.1999L37.2 48.4399L35.16 48.9199C34.12 49.1599 33.36 50.1199 33.36 51.1999L33.32 55.5999C33.32 56.3599 33.96 56.9999 34.72 56.9999H45.24C46 56.9999 46.64 56.3599 46.64 55.5999L46.6 51.1999C46.6 50.1199 45.88 49.1599 44.84 48.9199Z" fill="#C51934"/>
<path d="M40 47.9601C42.3196 47.9601 44.2 46.0797 44.2 43.7601C44.2 41.4405 42.3196 39.5601 40 39.5601C37.6804 39.5601 35.8 41.4405 35.8 43.7601C35.8 46.0797 37.6804 47.9601 40 47.9601Z" fill="#C51934"/>
<path d="M27.64 45.6002C29.9596 45.6002 31.84 43.7198 31.84 41.4002C31.84 39.0806 29.9596 37.2002 27.64 37.2002C25.3204 37.2002 23.44 39.0806 23.44 41.4002C23.44 43.7198 25.3204 45.6002 27.64 45.6002Z" fill="#C51934"/>
<path d="M52.36 45.6002C54.6796 45.6002 56.56 43.7198 56.56 41.4002C56.56 39.0806 54.6796 37.2002 52.36 37.2002C50.0404 37.2002 48.16 39.0806 48.16 41.4002C48.16 43.7198 50.0404 45.6002 52.36 45.6002Z" fill="#C51934"/>
</svg>
