<svg width="80" height="80" viewBox="0 0 80 80" fill="none" xmlns="http://www.w3.org/2000/svg">
<circle cx="40" cy="40" r="40" fill="white"/>
<circle cx="15.5" cy="33.5" r="1.5" fill="#C51934"/>
<circle cx="24.5" cy="60.5" r="1.5" fill="#FFAA1B"/>
<circle cx="56.5" cy="66.5" r="1.5" fill="#C51934"/>
<circle cx="71.5" cy="35.5" r="1.5" fill="#FFAA1B"/>
<circle cx="45.5" cy="11.5" r="1.5" fill="#C51934"/>
<circle cx="37.5" cy="13.5" r="1.5" fill="#FFAA1B"/>
<path d="M48.4376 34.7275C43.2033 34.7275 38.9453 38.9854 38.9453 44.2197C38.9453 49.454 43.2032 53.7119 48.4375 53.7119C53.6718 53.7119 58 49.454 58 44.2197C58 38.9854 53.6719 34.7275 48.4376 34.7275ZM49.52 49.3026C49.5108 49.306 49.5013 49.3045 49.4921 49.3076V50.5479C49.4921 51.1309 49.0204 51.6026 48.4374 51.6026C47.8545 51.6026 47.3827 51.1309 47.3827 50.5479V49.3004C46.6881 49.0657 46.0225 48.6204 45.4535 47.9421C45.0786 47.4961 45.1363 46.8307 45.5833 46.4568C46.0293 46.0819 46.6967 46.1396 47.0686 46.5866C47.6268 47.2509 48.2582 47.5146 48.7979 47.321C49.213 47.1696 49.4921 46.771 49.4921 46.3291C49.4921 45.7472 49.0193 45.2744 48.4374 45.2744C46.6927 45.2744 45.2734 43.8551 45.2734 42.1104C45.2734 40.8363 46.0314 39.692 47.2046 39.1956C47.2627 39.171 47.3242 39.1724 47.3828 39.1515V37.8916C47.3828 37.3087 47.8545 36.8369 48.4375 36.8369C49.0205 36.8369 49.4922 37.3087 49.4922 37.8916V39.1534C50.0383 39.3379 50.5709 39.6311 51.0464 40.0917C51.4646 40.4965 51.4749 41.1639 51.0691 41.5831C50.6643 42.0013 49.9958 42.0105 49.5776 41.6058C49.0647 41.1083 48.4972 40.9373 48.0275 41.1382C47.6361 41.304 47.3827 41.6851 47.3827 42.1105C47.3827 42.6924 47.8555 43.1652 48.4374 43.1652C50.1822 43.1652 51.6015 44.5845 51.6015 46.3292C51.6016 47.6547 50.7652 48.8495 49.52 49.3026Z" fill="#FFAA1B"/>
<path d="M23.0548 45.2739C22.4719 45.2739 22.0001 45.7457 22.0001 46.3286V56.9458C22.0001 57.5288 22.4719 58.0005 23.0548 58.0005H26.2189V45.2739H23.0548Z" fill="#C51934"/>
<path d="M47.0138 28.5831L39.631 22.2549C39.2375 21.915 38.6525 21.915 38.259 22.2549L30.8762 28.5831C30.5405 28.8694 30.4199 29.3349 30.5734 29.749C30.7258 30.1631 31.1203 30.4381 31.5622 30.4381H34.7262C34.7262 39.5563 34.7262 48.8819 34.7262 58.0006C37.4433 58.0006 39.3217 58.0006 42.1091 58.0006C42.6921 58.0006 43.1638 57.5289 43.1638 56.9459V54.5402C39.4131 52.6158 36.8356 48.7169 36.8356 44.2194C36.8356 39.7219 39.4132 35.823 43.1638 33.8986V30.4382H46.3278C46.7697 30.4382 47.1642 30.1632 47.3167 29.7491C47.4701 29.3349 47.3496 28.8694 47.0138 28.5831Z" fill="#C51934"/>
<path d="M29.4531 36.8369C28.8702 36.8369 28.3984 37.3086 28.3984 37.8916V45.2745V58.0009C29.939 58.0009 31.1214 58.0009 32.6172 58.0009V36.8369H29.4531Z" fill="#C51934"/>
</svg>
