<svg width="80" height="80" viewBox="0 0 80 80" fill="none" xmlns="http://www.w3.org/2000/svg">
<circle cx="40" cy="40" r="40" fill="white"/>
<circle cx="18.5" cy="21.5" r="1.5" fill="#C51934"/>
<circle cx="31.5" cy="61.5" r="1.5" fill="#FFAA1B"/>
<circle cx="53.5" cy="65.5" r="1.5" fill="#C51934"/>
<circle cx="70.5" cy="41.5" r="1.5" fill="#FFAA1B"/>
<circle cx="60.5" cy="17.5" r="1.5" fill="#C51934"/>
<circle cx="22.5" cy="16.5" r="1.5" fill="#FFAA1B"/>
<path d="M21.627 43.6747C21.627 46.0872 25.3249 47.3495 28.9762 47.3495C32.6278 47.3495 36.3258 46.0872 36.3258 43.6747C36.3258 38.85 21.627 38.85 21.627 43.6747Z" fill="#FFAA1B"/>
<path d="M28.9759 49.1868C26.2011 49.1868 23.4185 48.5546 21.6536 47.2109C21.6506 47.259 21.6267 47.3001 21.6267 47.3495C21.6267 49.7617 25.3247 51.024 28.9759 51.024C32.6275 51.024 36.3255 49.7617 36.3255 47.3495C36.3255 47.3001 36.3013 47.259 36.2983 47.2109C34.5334 48.5546 31.7508 49.1868 28.9759 49.1868Z" fill="#FFAA1B"/>
<path d="M28.9759 52.8604C26.2011 52.8604 23.4185 52.2283 21.6536 50.8843C21.6506 50.9327 21.6267 50.9738 21.6267 51.0229C21.6267 53.4354 25.3247 54.6977 28.9759 54.6977C32.6275 54.6977 36.3255 53.4354 36.3255 51.0229C36.3255 50.9738 36.3013 50.9327 36.2983 50.8843C34.5334 52.2283 31.7508 52.8604 28.9759 52.8604Z" fill="#FFAA1B"/>
<path d="M28.9759 56.5359C26.2011 56.5359 23.4185 55.9037 21.6536 54.5601C21.6506 54.6082 21.6267 54.6495 21.6267 54.6987C21.6267 57.1112 25.3247 58.3734 28.9759 58.3734C32.6275 58.3734 36.3255 57.1112 36.3255 54.6987C36.3255 54.6495 36.3013 54.6082 36.2983 54.5601C34.5334 55.9037 31.7508 56.5359 28.9759 56.5359Z" fill="#FFAA1B"/>
<path d="M41.4811 27.138H49.9661L52.0523 22.9545C52.1943 22.6699 52.1788 22.3321 52.0113 22.0616C51.8441 21.7912 51.5487 21.6263 51.2308 21.626H40.2067C39.8878 21.6256 39.5921 21.7908 39.4246 22.062C39.257 22.3331 39.2419 22.6716 39.3849 22.9565L41.4811 27.138Z" fill="#C51934"/>
<path d="M51.0241 28.9751H40.0001C37.0096 30.4705 34.0538 34.2553 33.0442 38.7066C36.2046 39.5194 38.1629 41.3078 38.1629 43.6739V54.6979C38.1663 55.3344 38.0226 55.9632 37.7427 56.5351H51.9429C55.4926 56.5311 58.3693 53.6543 58.3737 50.1047V41.8367C58.3737 36.0885 54.6989 30.8127 51.0241 28.9751ZM44.5937 41.8367H46.4309C47.9529 41.8367 49.1869 43.0703 49.1869 44.5927C49.1869 46.1147 47.9529 47.3487 46.4309 47.3487V48.2671C46.4309 48.7745 46.0195 49.1859 45.5121 49.1859C45.0048 49.1859 44.5937 48.7745 44.5937 48.2671V47.3487H42.7561C42.2488 47.3487 41.8377 46.9372 41.8377 46.4299C41.8377 45.9226 42.2488 45.5111 42.7561 45.5111H46.4309C46.9383 45.5111 47.3497 45.1 47.3497 44.5927C47.3497 44.0853 46.9383 43.6739 46.4309 43.6739H44.5937C43.0714 43.6739 41.8377 42.4399 41.8377 40.9179C41.8377 39.3959 43.0714 38.1619 44.5937 38.1619V37.2431C44.5937 36.7358 45.0048 36.3247 45.5121 36.3247C46.0195 36.3247 46.4309 36.7358 46.4309 37.2431V38.1619H48.2681C48.7755 38.1619 49.1869 38.5733 49.1869 39.0807C49.1869 39.588 48.7755 39.9991 48.2681 39.9991H44.5937C44.0864 39.9991 43.6749 40.4106 43.6749 40.9179C43.6749 41.4252 44.0864 41.8367 44.5937 41.8367Z" fill="#C51934"/>
</svg>
