<svg width="80" height="80" viewBox="0 0 80 80" fill="none" xmlns="http://www.w3.org/2000/svg">
<circle cx="40" cy="40" r="40" fill="white"/>
<circle cx="7.5" cy="42.5" r="1.5" fill="#C51934"/>
<circle cx="31.5" cy="65.5" r="1.5" fill="#FFAA1B"/>
<circle cx="65.5" cy="56.5" r="1.5" fill="#C51934"/>
<circle cx="71.5" cy="37.5" r="1.5" fill="#FFAA1B"/>
<circle cx="52.5" cy="15.5" r="1.5" fill="#C51934"/>
<circle cx="24.5" cy="14.5" r="1.5" fill="#FFAA1B"/>
<g clip-path="url(#clip0_3436_33849)">
<path d="M39.767 36.55H39.7837L47.9504 33.7667C47.9837 33.6167 47.9837 33.4667 47.9837 33.3333C47.9837 33.1833 47.967 33.05 47.917 32.9167C47.7837 32.5333 47.5337 32.1167 47.1837 31.8167V28.1667C47.1837 25.4667 46.217 24.4 45.217 23.7833C44.7004 22.2167 42.5504 20 38.3337 20C33.3337 20 29.567 24.95 29.567 28.1667C29.567 29.5 29.517 30.55 29.467 31.35C29.467 31.5167 29.4504 31.6667 29.4504 31.8C29.0837 32.1333 28.8337 32.5833 28.717 33.0167C28.7004 33.1167 28.6837 33.2167 28.6837 33.3333C28.6837 34.6333 29.417 36.5167 29.517 36.7333C29.617 37.0167 29.8337 37.25 30.117 37.3833C30.1337 37.45 30.1504 37.55 30.1504 37.75C30.1504 39.5167 31.667 41.1833 32.5004 41.9833C32.417 43.8167 31.9004 45.0833 31.167 45.4L24.6337 47.5667C22.7837 48.1833 21.4004 49.6833 20.917 51.5833L20.0337 55.1167C19.9504 55.4833 20.0337 55.8833 20.267 56.1833C20.5004 56.4833 20.867 56.6667 21.2504 56.6667H39.9337C39.4337 56.0333 38.967 55.3333 38.5337 54.5833C37.4337 52.6333 36.667 50.2667 36.667 47.5833V40.9C36.667 38.9333 37.917 37.2 39.767 36.55Z" fill="#C51934"/>
<path d="M59.1517 39.7102L50.4017 36.7335C50.1417 36.6435 49.8583 36.6435 49.5983 36.7335L40.8483 39.7102C40.34 39.8818 40 40.3568 40 40.8935V47.5902C40 55.7635 49.1233 59.7369 49.5117 59.9019C49.825 60.0335 50.175 60.0335 50.4883 59.9019C50.8767 59.7352 60 55.7635 60 47.5902V40.8935C60 40.3568 59.66 39.8818 59.1517 39.7102ZM55.4767 46.0302L50.8933 51.8635C50.31 52.6085 49.2167 52.7169 48.4983 52.1002L45.5817 49.6002C44.8817 49.0019 44.8 47.9485 45.4017 47.2502C46 46.5519 47.0533 46.4719 47.75 47.0702L49.3467 48.4385L52.855 43.9735C53.4233 43.2502 54.47 43.1218 55.195 43.6935C55.92 44.2585 56.0467 45.3069 55.4767 46.0302Z" fill="#FFAA1B"/>
</g>
<defs>
<clipPath id="clip0_3436_33849">
<rect width="40" height="40" fill="white" transform="translate(20 20)"/>
</clipPath>
</defs>
</svg>
