<svg width="80" height="80" viewBox="0 0 80 80" fill="none" xmlns="http://www.w3.org/2000/svg">
<circle cx="40" cy="40" r="40" fill="white"/>
<circle cx="7.5" cy="42.5" r="1.5" fill="#C51934"/>
<circle cx="31.5" cy="65.5" r="1.5" fill="#FFAA1B"/>
<circle cx="65.5" cy="56.5" r="1.5" fill="#C51934"/>
<circle cx="71.5" cy="37.5" r="1.5" fill="#FFAA1B"/>
<circle cx="52.5" cy="15.5" r="1.5" fill="#C51934"/>
<circle cx="24.5" cy="14.5" r="1.5" fill="#FFAA1B"/>
<path d="M34.2004 21.646C26.8019 21.646 21.646 24.2152 21.646 26.521C21.646 28.8269 26.8019 31.3961 34.2004 31.3961C41.5989 31.3961 46.7548 28.8268 46.7548 26.521C46.7548 24.2153 41.599 21.646 34.2004 21.646Z" fill="#FFAA1B"/>
<path d="M21.646 48.9194V53.4791C21.646 55.7849 26.8019 58.3541 34.2004 58.3541C37.5163 58.3541 40.6461 57.8319 43.0134 56.8834C44.5563 56.2654 45.6983 55.4987 46.2928 54.7021C45.1731 53.8261 43.8804 52.5666 42.7541 50.8288C40.275 51.6226 37.3448 52.0391 34.2005 52.0391C30.2442 52.0391 26.5433 51.3575 23.7795 50.1199C22.9733 49.7589 22.2602 49.3566 21.646 48.9194H21.646Z" fill="#FFAA1B"/>
<path d="M21.6461 39.9546L21.646 44.452C21.646 46.7578 26.8019 49.327 34.2004 49.327C36.8243 49.327 39.3419 48.998 41.451 48.3891C40.6862 46.6209 40.1918 44.6689 39.9736 42.5566C38.1695 42.8959 36.2034 43.0731 34.2004 43.0731C30.2187 43.0731 26.5003 42.3838 23.7304 41.1322C22.9442 40.7768 22.2475 40.3823 21.6461 39.9546Z" fill="#FFAA1B"/>
<path d="M21.646 30.9849V35.4854C21.646 37.7912 26.8019 40.3604 34.2004 40.3604C36.1792 40.3604 38.1083 40.174 39.8448 39.8176C39.8472 39.3914 39.9743 38.2822 41.0012 38.0003C42.6194 37.5561 43.7518 36.4897 43.852 35.0268C43.8932 34.4246 44.6469 33.5807 45.2082 33.5891H46.7549V30.9849C46.1534 31.4126 45.457 31.8072 44.6709 32.1629C41.8974 33.4176 38.1789 34.1086 34.2005 34.1086C30.222 34.1086 26.5036 33.4176 23.7302 32.1629C22.9439 31.8072 22.2475 31.4126 21.646 30.9849H21.646Z" fill="#FFAA1B"/>
<path d="M54.5079 36.3018H46.4159C45.9635 38.1829 44.5171 39.7261 42.5605 40.399C42.7127 49.4287 47.9029 52.8718 50.1912 53.9513C50.322 54.013 50.477 54.0064 50.6061 53.9338C52.9032 52.6393 58.1117 48.7861 58.3541 40.3959C56.4024 39.7214 54.9597 38.1801 54.5079 36.3018ZM49.9771 48.0607C49.4279 48.6255 48.4827 48.5945 47.9718 47.995L45.3933 44.9694L47.4584 43.2102L49.0704 45.1018L53.5675 40.4763L55.5129 42.3668L49.9771 48.0607Z" fill="#C51934"/>
</svg>
