<svg width="80" height="80" viewBox="0 0 80 80" fill="none" xmlns="http://www.w3.org/2000/svg">
<circle cx="40" cy="40" r="40" fill="white"/>
<circle cx="15.5" cy="33.5" r="1.5" fill="#C51934"/>
<circle cx="24.5" cy="60.5" r="1.5" fill="#FFAA1B"/>
<circle cx="56.5" cy="66.5" r="1.5" fill="#C51934"/>
<circle cx="71.5" cy="35.5" r="1.5" fill="#FFAA1B"/>
<circle cx="45.5" cy="11.5" r="1.5" fill="#C51934"/>
<circle cx="37.5" cy="13.5" r="1.5" fill="#FFAA1B"/>
<g clip-path="url(#clip0_3436_35533)">
<path d="M58.8276 57.6564H57.5776V34.5317C57.5776 33.8845 57.0529 33.3599 56.4058 33.3599H51.7183C51.0711 33.3599 50.5465 33.8845 50.5465 34.5317V57.6564H48.2027V42.3441C48.2027 41.6969 47.6781 41.1723 47.0309 41.1723H42.3434C41.6963 41.1723 41.1716 41.6969 41.1716 42.3441V57.6564H38.8279V46.6409C38.8279 45.9938 38.3032 45.4691 37.656 45.4691H32.9686C32.3214 45.4691 31.7967 45.9938 31.7967 46.6409V57.6564H29.453V49.4534C29.453 48.8062 28.9283 48.2815 28.2811 48.2815H23.5937C22.9465 48.2815 22.4218 48.8062 22.4218 49.4534V57.6564H21.1719C20.5247 57.6564 20 58.1811 20 58.8283C20 59.4754 20.5247 60.0001 21.1719 60.0001H58.8276C59.4748 60.0001 59.9995 59.4754 59.9995 58.8283C59.9995 58.1811 59.4748 57.6564 58.8276 57.6564Z" fill="#C51934"/>
<path d="M21.1719 45.1799C28.4857 45.1799 36.417 42.5532 43.5048 37.7837C49.0559 34.0482 53.6833 29.2761 56.5576 24.3897L57.6957 28.6371C57.836 29.1607 58.5135 29.613 59.1309 29.4657C59.7605 29.3155 60.127 28.6556 59.9595 28.0304L58.0406 20.8688C57.873 20.2438 57.2307 19.8727 56.6054 20.0402L49.4437 21.9592C48.8186 22.1267 48.4477 22.7693 48.6152 23.3944C48.7827 24.0196 49.425 24.3907 50.0504 24.223L54.664 22.9868C51.9824 27.6465 47.5506 32.2362 42.1963 35.8392C35.4911 40.3513 28.0245 42.8362 21.1719 42.8362C20.5247 42.8362 20 43.3609 20 44.008C20 44.6552 20.5247 45.1799 21.1719 45.1799Z" fill="#FFAA1B"/>
</g>
<defs>
<clipPath id="clip0_3436_35533">
<rect width="40" height="40" fill="white" transform="translate(20 20)"/>
</clipPath>
</defs>
</svg>
