<svg width="80" height="80" viewBox="0 0 80 80" fill="none" xmlns="http://www.w3.org/2000/svg">
<circle cx="40" cy="40" r="40" fill="white"/>
<circle cx="7.5" cy="42.5" r="1.5" fill="#C51934"/>
<circle cx="31.5" cy="65.5" r="1.5" fill="#FFAA1B"/>
<circle cx="65.5" cy="56.5" r="1.5" fill="#C51934"/>
<circle cx="71.5" cy="37.5" r="1.5" fill="#FFAA1B"/>
<circle cx="52.5" cy="15.5" r="1.5" fill="#C51934"/>
<circle cx="24.5" cy="14.5" r="1.5" fill="#FFAA1B"/>
<path d="M43.3907 21.9165H26.0608C23.7703 21.9165 21.9167 23.77 21.9167 26.0606V49.4182C21.9167 51.7088 23.7703 53.5623 26.0608 53.5623H38.3424C37.0766 51.5581 36.2327 49.1922 36.2327 46.4797V42.8027C36.0067 42.9384 35.7505 43.0137 35.4792 43.0137H27.9445C27.1157 43.0137 26.4376 42.3356 26.4376 41.5068C26.4376 40.678 27.1157 39.9998 27.9445 39.9998H35.4792C35.7656 39.9998 36.0217 40.0752 36.2478 40.2108C36.3081 38.9299 36.9108 37.7545 37.8602 36.9859H27.9445C27.1157 36.9859 26.4376 36.3078 26.4376 35.479C26.4376 34.6502 27.1157 33.9721 27.9445 33.9721H41.507C42.1399 33.9721 42.6824 34.3639 42.9085 34.9214L47.2033 33.4597C47.3088 33.4145 47.4142 33.3843 47.5348 33.3693V26.0606C47.5348 23.77 45.6813 21.9165 43.3907 21.9165V21.9165ZM33.9723 30.9582H27.9445C27.1157 30.9582 26.4376 30.28 26.4376 29.4512C26.4376 28.6224 27.1157 27.9443 27.9445 27.9443H33.9723C34.8011 27.9443 35.4792 28.6224 35.4792 29.4512C35.4792 30.28 34.8011 30.9582 33.9723 30.9582Z" fill="#C51934"/>
<path d="M57.0617 39.0036L49.1503 36.3122C48.8353 36.2052 48.4932 36.2052 48.1783 36.3122L40.2668 39.0036C39.6565 39.2115 39.2451 39.7857 39.2451 40.4307V46.4856C39.2451 54.1212 47.7126 57.8102 48.0728 57.964C48.2627 58.0438 48.4646 58.083 48.665 58.083C48.8655 58.083 49.0674 58.0438 49.2558 57.9624C49.6159 57.8087 58.0835 54.1212 58.0835 46.4856V40.4307C58.0835 39.7842 57.6736 39.2115 57.0617 39.0036ZM54.0147 44.6712L49.4939 50.699C49.2316 51.0486 48.8323 51.2671 48.3953 51.2972C48.3591 51.3002 48.323 51.3018 48.2883 51.3018C47.889 51.3018 47.5062 51.145 47.2229 50.8602L44.209 47.8463C43.6198 47.2571 43.6198 46.3047 44.209 45.7155C44.7982 45.1263 45.7506 45.1263 46.3398 45.7155L48.1256 47.5012L51.6036 42.8629C52.1024 42.1983 53.0472 42.0612 53.7118 42.5615C54.3794 43.0603 54.515 44.0051 54.0147 44.6712Z" fill="#FFAA1B"/>
</svg>
