<svg width="80" height="80" viewBox="0 0 80 80" fill="none" xmlns="http://www.w3.org/2000/svg">
<circle cx="40" cy="40" r="40" fill="white"/>
<circle cx="11.5" cy="36.5" r="1.5" fill="#C51934"/>
<circle cx="26.5" cy="63.5" r="1.5" fill="#FFAA1B"/>
<circle cx="60.5" cy="54.5" r="1.5" fill="#C51934"/>
<circle cx="69.5" cy="44.5" r="1.5" fill="#FFAA1B"/>
<circle cx="61.5" cy="15.5" r="1.5" fill="#C51934"/>
<circle cx="36.5" cy="9.5" r="1.5" fill="#FFAA1B"/>
<path d="M48.7027 38.3945C48.764 38.3945 48.8249 38.3953 48.8862 38.3965L48.9019 38.3967C49.2456 38.4029 49.5864 38.4251 49.9239 38.4619V25.9309C49.9239 23.5349 47.9744 21.5854 45.5784 21.5854H26.7241C24.3279 21.5854 22.3784 23.5349 22.3784 25.9309V50.9253C22.3784 53.3215 24.3279 55.271 26.7238 55.271H39.3119C38.2256 53.5252 37.6558 51.5313 37.6558 49.4476C37.6558 43.3527 42.6112 38.3945 48.7027 38.3945ZM37.9629 28.6806H44.4025C44.9985 28.6806 45.4815 29.1636 45.4815 29.7596C45.4815 30.3555 44.9985 30.8385 44.4025 30.8385H37.9629C37.3672 30.8385 36.8839 30.3555 36.8839 29.7596C36.8839 29.1636 37.3672 28.6806 37.9629 28.6806ZM37.9629 32.9968H44.4025C44.9985 32.9968 45.4815 33.4798 45.4815 34.0758C45.4815 34.6717 44.9985 35.1547 44.4025 35.1547H37.9629C37.3672 35.1547 36.8839 34.6717 36.8839 34.0758C36.8839 33.4798 37.3672 32.9968 37.9629 32.9968ZM34.3394 48.1755H27.8998C27.3038 48.1755 26.8208 47.6925 26.8208 47.0966C26.8208 46.5009 27.3038 46.0176 27.8998 46.0176H34.3394C34.935 46.0176 35.4183 46.5009 35.4183 47.0966C35.4183 47.6925 34.935 48.1755 34.3394 48.1755ZM34.3394 43.7871H27.8998C27.3038 43.7871 26.8208 43.3041 26.8208 42.7082C26.8208 42.1122 27.3038 41.6292 27.8998 41.6292H34.3394C34.935 41.6292 35.4183 42.1122 35.4183 42.7082C35.4183 43.3041 34.935 43.7871 34.3394 43.7871ZM34.3394 39.4709H27.8998C27.3038 39.4709 26.8208 38.9879 26.8208 38.392C26.8208 37.796 27.3038 37.313 27.8998 37.313H34.3394C34.935 37.313 35.4183 37.796 35.4183 38.392C35.4183 38.9879 34.935 39.4709 34.3394 39.4709ZM34.3394 35.1547H27.8998C27.3038 35.1547 26.8208 34.6717 26.8208 34.0758C26.8208 33.4798 27.3038 32.9968 27.8998 32.9968H34.3394C34.935 32.9968 35.4183 33.4798 35.4183 34.0758C35.4183 34.6717 34.935 35.1547 34.3394 35.1547ZM34.3394 30.8385H27.8998C27.3038 30.8385 26.8208 30.3555 26.8208 29.7596C26.8208 29.1636 27.3038 28.6806 27.8998 28.6806H34.3394C34.935 28.6806 35.4183 29.1636 35.4183 29.7596C35.4183 30.3555 34.935 30.8385 34.3394 30.8385ZM36.8839 38.392C36.8839 37.796 37.3672 37.313 37.9629 37.313H40.0644C40.6604 37.313 41.1434 37.796 41.1434 38.392C41.1434 38.9879 40.6604 39.4709 40.0644 39.4709H37.9629C37.3672 39.4709 36.8839 38.9879 36.8839 38.392Z" fill="#C51934"/>
<path d="M55.0919 43.1608C53.4357 41.4754 51.2238 40.524 48.8639 40.4824L48.8484 40.4822C48.7998 40.4813 48.7512 40.4805 48.7026 40.4805C43.7615 40.4805 39.7417 44.503 39.7417 49.4475C39.7417 51.4113 40.3649 53.2762 41.5437 54.841C43.2546 57.1122 45.8638 58.4146 48.7026 58.4146C53.6437 58.4146 57.6634 54.392 57.6634 49.4475C57.6634 47.0805 56.7502 44.8478 55.0919 43.1608ZM52.5313 47.9898L49.1094 52.2554C48.8967 52.5204 48.5837 52.6594 48.267 52.6594C48.047 52.6594 47.8256 52.5923 47.6345 52.454L45.0824 50.6049C44.5999 50.2553 44.492 49.5807 44.8418 49.098C45.1914 48.6155 45.866 48.5076 46.3485 48.8575L48.0689 50.1039L50.8482 46.6394C51.221 46.1746 51.8999 46.1002 52.3649 46.473C52.8297 46.8459 52.9041 47.525 52.5313 47.9898Z" fill="#FFAA1B"/>
</svg>
