<svg width="80" height="80" viewBox="0 0 80 80" fill="none" xmlns="http://www.w3.org/2000/svg">
<circle cx="40" cy="40" r="40" fill="white"/>
<circle cx="15.5" cy="33.5" r="1.5" fill="#C51934"/>
<circle cx="24.5" cy="60.5" r="1.5" fill="#FFAA1B"/>
<circle cx="56.5" cy="66.5" r="1.5" fill="#C51934"/>
<circle cx="71.5" cy="35.5" r="1.5" fill="#FFAA1B"/>
<circle cx="45.5" cy="11.5" r="1.5" fill="#C51934"/>
<circle cx="37.5" cy="13.5" r="1.5" fill="#FFAA1B"/>
<path d="M31.25 21.25C25.0375 21.25 20 26.2875 20 32.5C20 38.7125 25.0375 43.75 31.25 43.75C37.4625 43.75 42.5 38.7125 42.5 32.5C42.5 26.2875 37.4625 21.25 31.25 21.25ZM32.5 37.3075V38.75C32.5 39.44 31.94 40 31.25 40C30.56 40 30 39.44 30 38.75V37.3275C29.5975 37.2125 29.22 37.04 28.88 36.815C28.305 36.43 28.1525 35.655 28.535 35.0775C28.92 34.505 29.695 34.355 30.27 34.7325C30.53 34.9075 30.87 35 31.25 35C32.015 35 32.5 34.59 32.5 34.375C32.5 34.16 32.015 33.75 31.25 33.75C29.1825 33.75 27.5 32.3475 27.5 30.625C27.5 29.2675 28.5475 28.1225 30 27.6925V26.25C30 25.56 30.56 25 31.25 25C31.94 25 32.5 25.56 32.5 26.25V27.6725C32.9025 27.7875 33.28 27.96 33.62 28.185C34.1925 28.5675 34.3475 29.345 33.965 29.92C33.5825 30.4925 32.8075 30.645 32.23 30.265C31.97 30.0925 31.63 30 31.25 30C30.485 30 30 30.41 30 30.625C30 30.84 30.485 31.25 31.25 31.25C33.3175 31.25 35 32.6525 35 34.375C35 35.7325 33.9525 36.8775 32.5 37.3075Z" fill="#FFAA1B"/>
<path d="M52.5 46.25V33.75C52.5 26.8475 46.9025 21.25 40 21.25L41.34 22.59C43.6825 24.9325 45 28.1125 45 31.4275V46.25H37.5L48.75 58.75L60 46.25H52.5Z" fill="#C51934"/>
</svg>
