<svg width="80" height="80" viewBox="0 0 80 80" fill="none" xmlns="http://www.w3.org/2000/svg">
<circle cx="40" cy="40" r="40" fill="white"/>
<circle cx="18.5" cy="21.5" r="1.5" fill="#C51934"/>
<circle cx="31.5" cy="61.5" r="1.5" fill="#FFAA1B"/>
<circle cx="53.5" cy="65.5" r="1.5" fill="#C51934"/>
<circle cx="70.5" cy="41.5" r="1.5" fill="#FFAA1B"/>
<circle cx="60.5" cy="17.5" r="1.5" fill="#C51934"/>
<circle cx="22.5" cy="16.5" r="1.5" fill="#FFAA1B"/>
<path d="M56.8878 46.9156L49.4478 55.5756C48.8998 56.2039 48.2236 56.7075 47.4646 57.0525C46.7056 57.3975 45.8815 57.5758 45.0478 57.5756H33.4478L31.4158 59.5996L22.5078 52.2996L27.6238 47.2596C28.991 45.9104 30.7224 44.9898 32.6055 44.6111C34.4886 44.2323 36.4413 44.4118 38.2238 45.1276H44.5198C45.1468 45.1276 45.7481 45.3766 46.1914 45.82C46.6347 46.2633 46.8838 46.8646 46.8838 47.4916C46.8838 48.1186 46.6347 48.7198 46.1914 49.1632C45.7481 49.6065 45.1468 49.8556 44.5198 49.8556H39.6398C39.4611 49.8942 39.3009 49.9928 39.1861 50.1351C39.0712 50.2774 39.0086 50.4547 39.0086 50.6376C39.0086 50.8204 39.0712 50.9978 39.1861 51.1401C39.3009 51.2824 39.4611 51.381 39.6398 51.4196H45.1718C45.5645 51.4188 45.9526 51.3354 46.3109 51.1748C46.6693 51.0142 46.9898 50.7801 47.2518 50.4876L53.1998 43.6756C53.4128 43.4339 53.6713 43.2366 53.9606 43.0949C54.2498 42.9532 54.5642 42.8698 54.8857 42.8496C55.2071 42.8293 55.5295 42.8726 55.8342 42.9769C56.139 43.0813 56.4202 43.2446 56.6618 43.4576C56.9034 43.6706 57.1008 43.9291 57.2425 44.2184C57.3842 44.5076 57.4676 44.822 57.4878 45.1434C57.5081 45.4649 57.4648 45.7872 57.3605 46.092C57.2561 46.3967 57.0928 46.6779 56.8798 46.9196L56.8878 46.9156Z" fill="#C51934"/>
<path d="M54 33C54 27.492 49.508 23 44 23C38.492 23 34 27.492 34 33C34 38.508 38.492 43 44 43C49.508 43 54 38.508 54 33ZM44.8556 37.9733V39.2567C44.8556 39.4171 44.7487 39.5241 44.5882 39.5241H43.3583C43.1979 39.5241 43.0909 39.4171 43.0909 39.2567V38.0267C41.861 37.9198 40.8449 36.9572 40.6845 35.7273C40.6845 35.5668 40.7914 35.4599 40.9519 35.4599H42.1818C42.2888 35.4599 42.3957 35.5134 42.3957 35.6203C42.5027 35.9947 42.8235 36.3155 43.2513 36.3155H44.3209C44.9626 36.3155 45.5508 35.8342 45.6043 35.246C45.6578 34.4973 45.123 33.9091 44.3743 33.9091H43.5722C42.0214 33.9091 40.6845 32.7861 40.5241 31.2888C40.3636 29.6845 41.5401 28.2941 43.0374 28.0802V26.8503C43.0374 26.7433 43.1444 26.5829 43.3048 26.5829H44.5348C44.6417 26.5829 44.8021 26.6898 44.8021 26.8503V28.0802C46.0321 28.1872 47.0481 29.1497 47.2086 30.3797C47.2086 30.5401 47.1016 30.6471 46.9412 30.6471H45.7112C45.6043 30.6471 45.4973 30.5936 45.4973 30.4866C45.3904 30.1123 45.0695 29.7914 44.6417 29.7914H43.5722C42.9305 29.7914 42.3422 30.2727 42.2888 30.861C42.2353 31.6096 42.7701 32.1979 43.5187 32.1979H44.4278C46.139 32.1979 47.5294 33.6952 47.369 35.4064C47.262 36.7433 46.139 37.7594 44.8556 37.9733Z" fill="#FFAA1B"/>
</svg>
