<svg width="80" height="80" viewBox="0 0 80 80" fill="none" xmlns="http://www.w3.org/2000/svg">
<circle cx="40" cy="40" r="40" fill="white"/>
<circle cx="11.5" cy="36.5" r="1.5" fill="#C51934"/>
<circle cx="26.5" cy="63.5" r="1.5" fill="#FFAA1B"/>
<circle cx="60.5" cy="54.5" r="1.5" fill="#C51934"/>
<circle cx="69.5" cy="44.5" r="1.5" fill="#FFAA1B"/>
<circle cx="61.5" cy="15.5" r="1.5" fill="#C51934"/>
<circle cx="36.5" cy="9.5" r="1.5" fill="#FFAA1B"/>
<path d="M41.0581 23C41.0581 22.4156 40.5843 21.9419 40 21.9419C39.4156 21.9419 38.9419 22.4156 38.9419 23V24.7636H41.0581V23Z" fill="#C51934"/>
<path d="M34.0039 23C34.0039 22.4156 33.5301 21.9419 32.9458 21.9419C32.3614 21.9419 31.8877 22.4156 31.8877 23V24.7636H34.0039V23Z" fill="#C51934"/>
<path d="M48.1128 23C48.1128 22.4156 47.639 21.9419 47.0547 21.9419C46.4703 21.9419 45.9966 22.4156 45.9966 23V24.7636H48.1128V23Z" fill="#C51934"/>
<path d="M53.8258 24.7637H48.1126V26.5268C48.1126 27.1112 47.6388 27.5849 47.0545 27.5849C46.4701 27.5849 45.9964 27.1112 45.9964 26.5268V24.7637H41.0583V26.5268C41.0583 27.1112 40.5845 27.5849 40.0002 27.5849C39.4158 27.5849 38.9421 27.1112 38.9421 26.5268V24.7637H34.004V26.5268C34.004 27.1112 33.5302 27.5849 32.9459 27.5849C32.3615 27.5849 31.8878 27.1112 31.8878 26.5268V24.7637H26.1745C24.4242 24.7637 23.0002 26.1876 23.0002 27.9379V31.4653H57.0001V27.9379C57.0001 26.1876 55.5761 24.7637 53.8258 24.7637Z" fill="#C51934"/>
<path d="M40.0001 38.8716C34.7105 38.8716 30.407 43.175 30.407 48.4646C30.407 53.7543 34.7105 58.0579 40.0001 58.0579C45.2898 58.0579 49.5933 53.7543 49.5933 48.4646C49.5933 43.175 45.2898 38.8716 40.0001 38.8716ZM41.0583 53.2901V53.8258C41.0583 54.4103 40.5846 54.8839 40.0002 54.8839C39.4159 54.8839 38.9421 54.4103 38.9421 53.8258V53.18C37.8828 52.8473 36.9068 52.1982 36.6241 51.7948C36.2887 51.3163 36.4047 50.6564 36.8832 50.321C37.3337 50.0054 37.9448 50.0896 38.2946 50.4996C38.5461 50.716 39.5112 51.2751 40.184 51.2751C40.8828 51.2751 41.3733 50.8668 41.4437 50.4721C41.5366 49.9517 40.7364 49.6134 40.4889 49.5221C39.2875 49.079 38.2203 48.6039 38.1754 48.5839C38.1245 48.5612 38.0754 48.5344 38.0287 48.5039C36.2203 47.3249 36.5448 44.5144 38.8281 43.7455V43.1034C38.8281 42.519 39.3018 42.0453 39.8861 42.0453C40.4705 42.0453 40.9442 42.519 40.9442 43.1034V43.6212C41.6172 43.7609 42.2727 44.0705 42.8781 44.5432C43.3927 44.9435 43.4327 45.5945 43.1018 46.035C42.7654 46.4826 42.1038 46.6244 41.5757 46.2111C41.1175 45.8533 40.392 45.4807 39.5372 45.7383C38.9351 45.9197 38.8588 46.46 39.1339 46.6936C39.4175 46.8176 40.2878 47.1923 41.2213 47.5366C44.739 48.8343 43.9796 52.6018 41.0583 53.2901Z" fill="#FFAA1B"/>
<path d="M23.0002 52.7681C23.0002 54.5183 24.4242 55.9424 26.1745 55.9424H30.9957C29.3076 53.9128 28.2909 51.3058 28.2909 48.4657C28.2909 42.0092 33.5437 36.7564 40.0002 36.7564C46.4568 36.7564 51.7096 42.0092 51.7096 48.4657C51.7096 51.3058 50.6928 53.9128 49.0047 55.9424H53.8258C55.5761 55.9424 57.0001 54.5183 57.0001 52.7681V33.582H23.0002V52.7681Z" fill="#C51934"/>
</svg>
