<svg width="80" height="80" viewBox="0 0 80 80" fill="none" xmlns="http://www.w3.org/2000/svg">
<circle cx="40" cy="40" r="40" fill="white"/>
<circle cx="18.5" cy="21.5" r="1.5" fill="#C51934"/>
<circle cx="31.5" cy="61.5" r="1.5" fill="#FFAA1B"/>
<circle cx="53.5" cy="65.5" r="1.5" fill="#C51934"/>
<circle cx="70.5" cy="41.5" r="1.5" fill="#FFAA1B"/>
<circle cx="60.5" cy="17.5" r="1.5" fill="#C51934"/>
<circle cx="22.5" cy="16.5" r="1.5" fill="#FFAA1B"/>
<path d="M28.1098 29.9959C28.1098 29.5632 28.4619 29.2111 28.8946 29.2111C29.3273 29.2111 29.6794 29.5632 29.6794 29.9959C29.6794 30.4286 29.3273 30.7808 28.8946 30.7808C28.4619 30.7808 28.1098 30.4286 28.1098 29.9959ZM34.1267 34.4432C33.694 34.4432 33.3419 34.7953 33.3419 35.228C33.3419 35.6607 33.694 36.0128 34.1267 36.0128C34.5594 36.0128 34.9115 35.6607 34.9115 35.228C34.9115 34.7953 34.5594 34.4432 34.1267 34.4432ZM41.2046 34.8246C41.1646 35.0012 41.3933 35.4616 41.5445 35.7664C41.8362 36.354 42.1668 37.0198 41.883 37.6076C41.5952 38.2038 40.8612 38.361 40.2132 38.4994C39.8854 38.5698 39.3902 38.6757 39.2832 38.8094C39.1746 38.9457 39.1809 39.4545 39.1851 39.7912C39.1934 40.451 39.2026 41.1992 38.6883 41.6101C38.1758 42.0193 37.4501 41.8448 36.8102 41.6912C36.4809 41.6122 35.9843 41.4922 35.8245 41.5699C35.6733 41.6426 35.4611 42.0986 35.3206 42.4002C35.0399 43.0037 34.7218 43.6873 34.0715 43.8351C33.9896 43.8537 33.909 43.8623 33.8297 43.8623C33.2989 43.8623 32.8247 43.4743 32.364 43.0976C32.0825 42.8672 31.6966 42.5517 31.5104 42.5517C31.3244 42.5517 30.9385 42.8672 30.657 43.0976C30.1524 43.5102 29.58 43.9792 28.9498 43.8348C28.2994 43.687 27.981 43.0032 27.7001 42.4002C27.5599 42.0986 27.3474 41.6426 27.1965 41.5696C27.0364 41.4914 26.5393 41.612 26.2105 41.691C25.5704 41.8451 24.8452 42.0188 24.3324 41.6099C23.8179 41.1989 23.827 40.4505 23.8357 39.7904C23.8398 39.4537 23.8461 38.9452 23.7378 38.8091C23.6308 38.6752 23.1356 38.5693 22.8078 38.4991C22.1595 38.3605 21.4255 38.2033 21.1377 37.6068C20.8541 37.0195 21.1851 36.3535 21.4765 35.7659C21.628 35.4614 21.8566 35.0007 21.8166 34.8241C21.7805 34.6658 21.3865 34.36 21.1259 34.1575C20.5983 33.7484 20 33.2838 20 32.612C20 31.9402 20.5983 31.4758 21.1262 31.0662C21.3868 30.8639 21.7807 30.5581 21.8168 30.3996C21.8569 30.223 21.6282 29.7623 21.477 29.4576C21.1853 28.87 20.8547 28.2042 21.1385 27.6164C21.4263 27.0202 22.1603 26.863 22.8083 26.7243C23.1361 26.6542 23.6313 26.5482 23.7381 26.4146C23.8469 26.2783 23.8406 25.7694 23.8364 25.4328C23.8281 24.7727 23.8189 24.0245 24.3332 23.6136C24.8457 23.2044 25.5714 23.3786 26.2113 23.5325C26.5406 23.6115 27.0372 23.731 27.197 23.6541C27.3482 23.5811 27.5604 23.1254 27.7009 22.8235C27.9816 22.2203 28.2997 21.5367 28.95 21.3889C29.5794 21.246 30.1529 21.7133 30.6573 22.1261C30.939 22.3565 31.3249 22.672 31.5109 22.672C31.6969 22.672 32.0827 22.3565 32.3642 22.1263C32.8691 21.7133 33.4413 21.245 34.0717 21.3889C34.7218 21.5367 35.0402 22.2205 35.3212 22.8238C35.4616 23.1254 35.6738 23.5814 35.825 23.6544C35.9854 23.7315 36.4816 23.6117 36.8105 23.5327C37.4506 23.3789 38.1761 23.2047 38.6888 23.6138C39.2034 24.0248 39.1942 24.773 39.1856 25.4333C39.1814 25.77 39.1751 26.2788 39.2834 26.4146C39.3904 26.5482 39.8856 26.6545 40.2134 26.7246C40.8617 26.8632 41.5957 27.0202 41.8835 27.6166C42.1671 28.2042 41.8362 28.8702 41.5447 29.4578C41.3933 29.7626 41.1646 30.223 41.2046 30.3996C41.2408 30.5581 41.6347 30.8639 41.8953 31.0662C42.4229 31.4758 43.0212 31.9402 43.0212 32.612C43.0212 33.2838 42.4229 33.7481 41.895 34.1578C41.6345 34.3603 41.2405 34.6658 41.2046 34.8246ZM28.8946 31.8272C29.9041 31.8272 30.7258 31.0057 30.7258 29.9959C30.7258 28.9861 29.9041 28.1647 28.8946 28.1647C27.885 28.1647 27.0633 28.9861 27.0633 29.9959C27.0633 31.0057 27.885 31.8272 28.8946 31.8272ZM35.543 29.3194C35.7473 29.1151 35.7473 28.7839 35.543 28.5796C35.3387 28.3753 35.0075 28.3753 34.8032 28.5796L27.4782 35.9045C27.2739 36.1089 27.2739 36.4401 27.4782 36.6444C27.5805 36.7467 27.7142 36.7977 27.8481 36.7977C27.9821 36.7977 28.1158 36.7467 28.2181 36.6444L35.543 29.3194ZM35.9579 35.228C35.9579 34.2185 35.1362 33.3968 34.1267 33.3968C33.1171 33.3968 32.2954 34.2185 32.2954 35.228C32.2954 36.2376 33.1171 37.0593 34.1267 37.0593C35.1362 37.0593 35.9579 36.2376 35.9579 35.228Z" fill="#FFAA1B"/>
<path d="M52.5 46.25V33.75C52.5 26.8475 46.9025 21.25 40 21.25L41.34 22.59C43.6825 24.9325 45 28.1125 45 31.4275V46.25H37.5L48.75 58.75L60 46.25H52.5Z" fill="#C51934"/>
</svg>
