<svg width="80" height="80" viewBox="0 0 80 80" fill="none" xmlns="http://www.w3.org/2000/svg">
<circle cx="40" cy="40" r="40" fill="white"/>
<circle cx="11.5" cy="36.5" r="1.5" fill="#C51934"/>
<circle cx="26.5" cy="63.5" r="1.5" fill="#FFAA1B"/>
<circle cx="60.5" cy="54.5" r="1.5" fill="#C51934"/>
<circle cx="69.5" cy="44.5" r="1.5" fill="#FFAA1B"/>
<circle cx="61.5" cy="15.5" r="1.5" fill="#C51934"/>
<circle cx="36.5" cy="9.5" r="1.5" fill="#FFAA1B"/>
<path d="M35.48 45.8402C34.84 44.8002 33.76 43.4802 32.68 42.2402C31.72 41.1602 30.72 40.0402 30.04 39.0002C29.56 38.2402 28.64 38.2402 28 38.6402C27.2 39.1202 26.64 40.2002 27.48 41.8002C27.92 42.6802 28.96 43.8002 30.08 45.0402C30.16 45.1202 30.2 45.2002 30.28 45.2802C30.52 45.5602 30.48 46.0002 30.16 46.2402C29.92 46.4002 29.56 46.3202 29.36 46.1202C29.32 46.0402 29.24 46.0002 29.2 45.9202C28.32 44.9602 27.56 44.1202 27 43.3602C26.76 43.0402 26.56 42.7202 26.4 42.4402C25.76 41.1602 25.72 40.0402 26.08 39.2002C25.48 37.9202 25 36.7202 24.76 35.9602C24.04 33.7202 21 34.2802 21.12 36.6802C21.24 39.0802 22.12 47.1602 24.44 49.8802C25.52 51.1202 27.44 52.8002 29.48 54.2402C29.8 54.4802 30 54.8402 30 55.2002V56.8402C30 57.3202 30.4 57.7202 30.88 57.7202H36.64C37.16 57.7202 37.56 57.3202 37.52 56.8002C37.48 55.8002 37.44 54.2002 37.36 52.7602C37.04 49.7602 36.16 47.0002 35.48 45.8402Z" fill="#C51934"/>
<path d="M55.36 35.8397C55.12 36.5997 54.6 37.7997 54.04 39.0797C54.36 39.9597 54.36 41.0797 53.72 42.3197C53.56 42.5997 53.36 42.9197 53.12 43.2397C52.56 44.0397 51.76 44.8797 50.92 45.7997C50.88 45.8797 50.8 45.9197 50.76 45.9997C50.56 46.2397 50.2 46.2797 49.96 46.1197C49.64 45.9197 49.6 45.4397 49.84 45.1597C49.92 45.0797 49.96 44.9997 50.04 44.9197C51.16 43.7197 52.2 42.5597 52.64 41.6797C53.48 40.0397 52.92 38.9597 52.12 38.5197C51.48 38.1197 50.56 38.1197 50.08 38.8797C49.36 39.9597 48.4 41.0797 47.44 42.1197C46.32 43.3597 45.24 44.6797 44.64 45.7197C43.96 46.8797 43.04 49.6397 42.88 52.5597C42.8 53.9997 42.76 55.5997 42.72 56.5997C42.72 57.1197 43.12 57.5197 43.6 57.5197H49.36C49.84 57.5197 50.24 57.1197 50.24 56.6397V54.9997C50.24 54.5997 50.44 54.2397 50.76 54.0397C52.8 52.6397 54.72 50.9597 55.8 49.6797C58.16 46.9597 59 38.8797 59.12 36.4797C59.12 34.1597 56.08 33.5997 55.36 35.8397Z" fill="#C51934"/>
<path d="M47.1342 33.8924C47.799 34.1373 48.5688 34.2773 49.3387 34.2773C52.8029 34.2773 55.6372 31.4429 55.6372 27.9787C55.6372 24.5145 52.8379 21.6802 49.3387 21.6802C45.8744 21.6802 43.0401 24.4795 43.0401 27.9787C43.0401 28.6786 43.1451 29.3434 43.355 29.9733C45.0346 30.7781 46.3993 32.1428 47.1342 33.8924ZM45.8395 28.4686C45.8395 28.3636 45.9444 28.2587 46.0494 28.2587H46.5393C46.5393 28.1537 46.5393 28.0487 46.5393 27.9437C46.5393 27.8388 46.5393 27.7338 46.5393 27.6288H46.0494C45.9444 27.6288 45.8395 27.5238 45.8395 27.4539V26.859C45.8395 26.754 45.9444 26.684 46.0494 26.684H46.7492C47.2391 25.3193 48.4289 24.3746 49.7586 24.3746C50.5634 24.3746 51.3332 24.7245 51.9281 25.3193C51.9631 25.3543 51.998 25.4243 51.998 25.4593C51.998 25.5293 51.9631 25.5643 51.9281 25.5993L51.2632 26.1941C51.1932 26.2641 51.0883 26.2641 50.9833 26.1941C50.6334 25.8442 50.1785 25.6693 49.7586 25.6693C49.1287 25.6693 48.4988 26.0542 48.1489 26.684H49.8285C49.9335 26.684 50.0385 26.754 50.0385 26.859V27.4539C50.0385 27.5588 49.9335 27.6288 49.8285 27.6288H47.834C47.834 27.7338 47.799 27.8388 47.799 27.9437C47.799 28.0487 47.799 28.1537 47.834 28.2587H49.8285C49.9335 28.2587 50.0385 28.3636 50.0385 28.4686V29.0635C50.0385 29.1685 49.9335 29.2384 49.8285 29.2384H48.1489C48.4988 29.8683 49.1287 30.2532 49.7586 30.2532C50.2135 30.2532 50.6334 30.0782 50.9833 29.7283C51.0533 29.6583 51.1582 29.6583 51.2632 29.7283L51.9281 30.3232C51.9631 30.3582 51.998 30.3932 51.998 30.4632C51.998 30.5331 51.998 30.5681 51.9281 30.6031C51.3332 31.198 50.5634 31.5479 49.7586 31.5479C48.4289 31.5479 47.2391 30.6381 46.7492 29.2384H46.0494C45.9444 29.2384 45.8395 29.1335 45.8395 29.0635V28.4686Z" fill="#FFAA1B"/>
<path d="M30.898 34.2774C31.6678 34.2774 32.4026 34.1375 33.1025 33.8925C33.8373 32.1779 35.202 30.8132 36.8816 30.0084C37.0916 29.3786 37.1965 28.7137 37.1965 28.0139C37.1965 24.5497 34.3622 21.7153 30.898 21.7153C27.4338 21.7153 24.5994 24.5147 24.5994 28.0139C24.5994 31.4431 27.3988 34.2774 30.898 34.2774ZM28.4485 24.7596H29.4633C29.5333 24.7596 29.5683 24.7946 29.6033 24.8296L30.898 26.8592L32.1927 24.8296C32.2277 24.7946 32.2627 24.7596 32.3327 24.7596H33.3474C33.4874 24.7596 33.5574 24.8996 33.4874 25.0046L31.5278 28.0839H32.6126C32.6826 28.0839 32.7176 28.1189 32.7176 28.1888V28.7837C32.7176 28.8537 32.6826 28.8887 32.6126 28.8887H31.4928V29.4136H32.6126C32.6826 29.4136 32.7176 29.4486 32.7176 29.5185V30.1134C32.7176 30.1834 32.6826 30.2184 32.6126 30.2184H31.4928V31.4081C31.4928 31.5131 31.4229 31.5831 31.3179 31.5831H30.4781C30.3731 31.5831 30.3031 31.5131 30.3031 31.4081V30.2184H29.1834C29.1134 30.2184 29.0784 30.1484 29.0784 30.1134V29.5185C29.0784 29.4486 29.1134 29.4136 29.1834 29.4136H30.3031V28.8887H29.1834C29.1134 28.8887 29.0784 28.8187 29.0784 28.7837V28.1888C29.0784 28.1189 29.1134 28.0839 29.1834 28.0839H30.2681L28.3086 25.0046C28.2386 24.8996 28.3436 24.7596 28.4485 24.7596Z" fill="#FFAA1B"/>
<path d="M46.3994 36.9021C46.3994 33.4379 43.5651 30.6035 40.1009 30.6035C36.6367 30.6035 33.8023 33.4379 33.8023 36.9021C33.8023 40.3663 36.6367 43.2006 40.1009 43.2006C43.5651 43.2006 46.3994 40.4013 46.3994 36.9021ZM39.8209 36.3422H40.3458C41.4306 36.3422 42.3403 37.287 42.2354 38.4067C42.1654 39.2465 41.5005 39.9114 40.6607 40.0513V40.8212C40.6607 40.8912 40.5907 40.9611 40.5208 40.9611H39.681C39.611 40.9611 39.541 40.8912 39.541 40.8212V40.0863C38.7012 39.9464 38.0363 39.2465 37.9664 38.4067C37.9664 38.3017 38.0363 38.2318 38.1063 38.2318H38.9461C39.0161 38.2318 39.0861 38.2668 39.0861 38.3367C39.1561 38.6867 39.436 38.9316 39.7859 38.9316H40.2758C40.6257 38.9316 40.9757 38.6867 41.0456 38.3367C41.1156 37.8818 40.7657 37.4969 40.3458 37.4969H39.8909C38.9111 37.4969 38.0363 36.7971 37.9314 35.8173C37.8264 34.8026 38.5262 33.9278 39.506 33.7878V33.053C39.506 32.983 39.576 32.913 39.646 32.913H40.4858C40.5558 32.913 40.6257 32.983 40.6257 33.053V33.7528C41.4655 33.8928 42.1304 34.5926 42.2004 35.4324C42.2004 35.5374 42.1304 35.6074 42.0604 35.6074H41.2206C41.1506 35.6074 41.0806 35.5724 41.0806 35.5024C41.0107 35.1525 40.7307 34.9075 40.3808 34.9075H39.8909C39.541 34.9075 39.1911 35.1525 39.1211 35.5024C39.0511 35.9573 39.401 36.3422 39.8209 36.3422Z" fill="#FFAA1B"/>
</svg>
