<svg width="24" height="24" viewBox="0 0 24 24" fill="none" xmlns="http://www.w3.org/2000/svg">
<path fill-rule="evenodd" clip-rule="evenodd" d="M7.29376 9.29259C7.48129 9.10512 7.7356 8.99981 8.00076 8.99981C8.26593 8.99981 8.52024 9.10512 8.70776 9.29259L12.0008 12.5856L15.2938 9.29259C15.386 9.19708 15.4964 9.1209 15.6184 9.06849C15.7404 9.01608 15.8716 8.9885 16.0044 8.98734C16.1371 8.98619 16.2688 9.01149 16.3917 9.06177C16.5146 9.11205 16.6263 9.18631 16.7202 9.2802C16.8141 9.37409 16.8883 9.48574 16.9386 9.60864C16.9889 9.73154 17.0142 9.86321 17.013 9.99599C17.0119 10.1288 16.9843 10.26 16.9319 10.382C16.8795 10.504 16.8033 10.6143 16.7078 10.7066L12.7078 14.7066C12.5202 14.8941 12.2659 14.9994 12.0008 14.9994C11.7356 14.9994 11.4813 14.8941 11.2938 14.7066L7.29376 10.7066C7.10629 10.5191 7.00098 10.2648 7.00098 9.99959C7.00098 9.73443 7.10629 9.48012 7.29376 9.29259Z" fill="#AFAFAF"/>
</svg>
