<svg width="37" height="43" viewBox="0 0 37 43" fill="none" xmlns="http://www.w3.org/2000/svg">
<g clip-path="url(#clip0_19_94)">
<path d="M1.50566 33.2124L5.5124 35.514C6.1791 35.897 7.0105 35.4158 7.0105 34.6469V16.408C7.0105 15.3382 7.5801 14.3494 8.5055 13.8128L16.955 8.9127C17.8724 8.3807 19.0025 8.3725 19.9274 8.8913L28.7165 13.8203C29.6631 14.3511 30.2491 15.3517 30.2491 16.4369V26.4664C30.2491 27.5339 29.6819 28.5209 28.7597 29.0584L19.9386 34.1993C19.272 34.5878 18.4351 34.1069 18.4351 33.3353V27.8988C18.4351 27.5201 18.649 27.174 18.9876 27.0045L23.3352 24.8293C23.6738 24.6599 23.8877 24.3137 23.8877 23.935V19.1694C23.8877 18.8041 23.6886 18.4679 23.3683 18.2924L18.9276 15.859C18.6217 15.6914 18.2506 15.6953 17.9483 15.8692L13.7434 18.2886C13.4333 18.4671 13.2421 18.7976 13.2421 19.1554V38.8554C13.2421 39.571 13.6244 40.2321 14.2447 40.5889L16.941 42.1403C17.8661 42.6726 19.0044 42.6733 19.9302 42.1421L35.4931 33.2121C36.4252 32.6773 37 31.6847 37 30.61V12.39C37 11.3153 36.4252 10.3227 35.4931 9.7879L19.9334 0.859729C19.0059 0.327529 17.8653 0.329259 16.9394 0.864269L1.49904 9.7863C0.57138 10.3224 0 11.3125 0 12.3839V30.611C0 31.6852 0.57427 32.6773 1.50566 33.2124Z" fill="#FFAA1B"/>
</g>
<defs>
<clipPath id="clip0_19_94">
<rect width="37" height="43" fill="white"/>
</clipPath>
</defs>
</svg>
