<svg class="main-svg-slider" width="804" height="624" viewBox="0 0 804 624" fill="none" xmlns="http://www.w3.org/2000/svg">
     <rect x="648.001" y="468" width="156" height="156" fill="#0B3248"/>
     <path fill-rule="evenodd" clip-rule="evenodd" d="M648.099 624C734.21 623.947 804.001 554.124 804.001 468L648.001 468V624H648.099Z" fill="#FFAA1B"/>
     <path fill-rule="evenodd" clip-rule="evenodd" d="M648.001 557.143C697.233 557.143 737.144 517.232 737.144 468L648.001 468V557.143C648.001 557.143 648.001 557.143 648.001 557.143Z" fill="#851B5A"/>
     <path d="M648.001 312H804.001V468L648.001 312Z" fill="white"/>
     <path d="M648.001 468H804.001L648.001 312V468Z" fill="#0B3248"/>
     <circle r="9.28572" transform="matrix(1 0 0 -1 768.715 378.857)" fill="#FFAA1B"/>
     <circle r="9.28572" transform="matrix(1 0 0 -1 739.001 349.143)" fill="#FFAA1B"/>
     <circle r="9.28572" transform="matrix(1 0 0 -1 709.286 319.429)" fill="#FFAA1B"/>
     <path d="M804.001 312V349.143L766.858 312H804.001Z" fill="#B0CCC8"/>
     <path d="M648.001 156H804.001L648.001 312V156Z" fill="white"/>
     <path d="M804.001 156V312H648.001L804.001 156Z" fill="white"/>
     <path d="M648.001 156H804.001L726.001 234L648.001 156Z" fill="#FFAA1B"/>
     <path d="M648.001 312L648.001 156L726.001 234L648.001 312Z" fill="#851B5A"/>
     <circle cx="768.715" cy="260" r="9.28572" fill="#FFAA1B"/>
     <circle cx="739.001" cy="289.714" r="9.28572" fill="#FFAA1B"/>
     <circle cx="709.286" cy="319.429" r="9.28572" fill="#FFAA1B"/>
     <path d="M804.001 274.857V312H766.858L804.001 274.857Z" fill="#B0CCC8"/>
     <path d="M693.692 45.6913C665.462 73.9218 648.001 112.922 648.001 156L804.001 156L693.692 45.6913Z" fill="#B1CDC7"/>
     <path d="M804.001 -1.75027e-05C760.923 -1.37367e-05 721.923 17.4609 693.692 45.6913C693.692 45.6913 803.993 156 804.001 156C804.001 95.0782 804.001 -1.75027e-05 804.001 -1.75027e-05Z" fill="#92BAB3"/>
     <rect x="492.001" y="468" width="156" height="156" fill="#B60435"/>
     <rect x="492.001" y="468" width="156" height="156" rx="40.8571" fill="white"/>
     <rect x="532.858" y="508.857" width="74.2857" height="74.2857" rx="11.1429" fill="#204153"/>
     <rect x="492.001" y="312" width="156" height="156" fill="black"/>
     <rect x="492.001" y="390" width="156" height="78" fill="#7B0A57"/>
     <circle cx="524.501" cy="429" r="9.28572" fill="white"/>
     <circle cx="569.072" cy="429" r="9.28572" fill="white"/>
     <circle cx="613.643" cy="429" r="9.28572" fill="white"/>
     <rect x="492.001" y="312" width="156" height="78" fill="#B60435"/>
     <path fill-rule="evenodd" clip-rule="evenodd" d="M570.001 312L648.001 390V312H570.001ZM570.001 312C613.079 312 648.001 346.922 648.001 390L570.001 312Z" fill="#E06654"/>
     <path fill-rule="evenodd" clip-rule="evenodd" d="M570.001 390L492.001 312V390H570.001ZM570.001 390C526.923 390 492.001 355.078 492.001 312L570.001 390Z" fill="#7B0A57"/>
     <rect x="570.001" y="156" width="78" height="156" fill="#E06654"/>
     <rect x="492.001" y="156" width="78" height="156" fill="#B60435"/>
     <rect x="336.001" y="468" width="156" height="156" fill="white"/>
     <path d="M446.309 513.691C474.54 541.922 492.001 580.922 492.001 624L336.001 624L446.309 513.691Z" fill="#7B0A57"/>
     <path d="M336.001 468C379.079 468 418.079 485.461 446.309 513.691C446.309 513.691 336.008 624 336.001 624C336.001 563.078 336.001 468 336.001 468Z" fill="#204153"/>
     <rect x="414.001" y="312" width="78" height="156" fill="#F6AA21"/>
     <rect x="336.001" y="312" width="78" height="156" fill="#7B0A57"/>
     <rect x="336.001" y="234" width="156" height="78" fill="#B1CDC7"/>
     <path d="M492.001 234H336.001C336.001 190.922 370.923 156 414.001 156C457.079 156 492.001 190.922 492.001 234Z" fill="#B1CDC7"/>
     <rect x="376.858" y="196.857" width="74.2857" height="74.2857" rx="11.1429" fill="white"/>
     <rect x="180.001" y="468" width="156" height="156" fill="#AF0736"/>
     <circle cx="213.429" cy="501.429" r="9.28572" fill="white"/>
     <circle cx="258.001" cy="501.429" r="9.28572" fill="white"/>
     <circle cx="302.572" cy="501.429" r="9.28572" fill="white"/>
     <circle cx="213.429" cy="546" r="9.28572" fill="white"/>
     <circle cx="258.001" cy="546" r="9.28572" fill="white"/>
     <circle cx="302.572" cy="546" r="9.28572" fill="white"/>
     <circle cx="213.429" cy="590.571" r="9.28572" fill="white"/>
     <circle cx="258.001" cy="590.571" r="9.28572" fill="white"/>
     <circle cx="302.572" cy="590.571" r="9.28572" fill="white"/>
     <rect x="180.001" y="312" width="156" height="156" fill="#E06654"/>
     <path d="M258.001 390L336.001 468H180.001L258.001 390Z" fill="#F6AA21"/>
     <rect x="220.858" y="352.857" width="74.2857" height="74.2857" rx="11.1429" fill="white"/>
     <path d="M180 468C93.8436 468 24 537.844 24 624L180 624L180 468Z" fill="#B60435"/>
     <path d="M179.999 534.857C130.767 534.857 90.8564 574.768 90.8564 624L179.999 624L179.999 534.857Z" fill="#0E3347"/>
     <circle r="7.42857" transform="matrix(-1 0 0 1 150.286 438.286)" fill="#B60435"/>
     <circle r="7.42857" transform="matrix(-1 0 0 1 150.286 401.143)" fill="#B60435"/>
     <circle r="7.42857" transform="matrix(-1 0 0 1 150.286 364)" fill="#B60435"/>
     <circle r="5.57143" transform="matrix(4.37114e-08 -1 -1 -4.37114e-08 5.57139 618.429)" fill="#FFAA1B"/>
     <circle r="5.57143" transform="matrix(4.37114e-08 -1 -1 -4.37114e-08 5.57139 592.429)" fill="#FFAA1B"/>
     <circle r="5.57143" transform="matrix(4.37114e-08 -1 -1 -4.37114e-08 5.57139 566.429)" fill="#FFAA1B"/>
     <circle r="3.71429" transform="matrix(-1 0 0 1 629.429 137.429)" fill="#FFAA1B"/>
     <circle r="3.71429" transform="matrix(-1 0 0 1 609 137.429)" fill="#FFAA1B"/>
     <circle r="3.71429" transform="matrix(-1 0 0 1 588.572 137.429)" fill="#FFAA1B"/>
     <g class="main-icon-1_2">
     <path d="M264.25 382.5C271.844 382.5 278 379.702 278 376.25C278 372.798 271.844 370 264.25 370C256.656 370 250.5 372.798 250.5 376.25C250.5 379.702 256.656 382.5 264.25 382.5Z" fill="#C51934"/>
     <path d="M251.75 382.5C244.155 382.5 238 388.655 238 396.25C238 403.845 244.155 410 251.75 410C259.345 410 265.5 403.845 265.5 396.25C265.5 388.655 259.345 382.5 251.75 382.5ZM251.75 395C253.818 395 255.5 396.682 255.5 398.75C255.5 400.378 254.452 401.752 253 402.27V403.75C253 404.44 252.44 405 251.75 405C251.06 405 250.5 404.44 250.5 403.75V402.5H249.25C248.56 402.5 248 401.94 248 401.25C248 400.56 248.56 400 249.25 400H251.75C252.44 400 253 399.438 253 398.75C253 398.062 252.44 397.5 251.75 397.5C249.682 397.5 248 395.818 248 393.75C248 392.122 249.048 390.748 250.5 390.23V388.75C250.5 388.06 251.06 387.5 251.75 387.5C252.44 387.5 253 388.06 253 388.75V390H254.25C254.94 390 255.5 390.56 255.5 391.25C255.5 391.94 254.94 392.5 254.25 392.5H251.75C251.06 392.5 250.5 393.062 250.5 393.75C250.5 394.438 251.06 395 251.75 395Z" fill="#FFAA1B"/>
     <path d="M266.705 389.895C267.035 390.672 267.29 391.485 267.498 392.317C269.56 392.09 271.418 391.64 273 391.045V388.56C271.22 389.227 269.07 389.7 266.705 389.895Z" fill="#C51934"/>
     <path d="M267.595 399.805C267.395 400.698 267.128 401.56 266.788 402.39C269.123 402.193 271.24 401.72 273 401.06V398.543C271.443 399.13 269.62 399.575 267.595 399.805Z" fill="#C51934"/>
     <path d="M267.925 394.767C267.97 395.257 268 395.75 268 396.25C268 396.592 267.97 396.927 267.948 397.265C269.835 397.025 271.533 396.595 273 396.04V393.54C271.528 394.095 269.823 394.527 267.925 394.767Z" fill="#C51934"/>
     <path d="M264.25 385C263.973 385 263.705 384.987 263.433 384.98C264.17 385.742 264.828 386.577 265.405 387.472C268.293 387.365 270.895 386.835 273 386.04V383.572C270.623 384.465 267.575 385 264.25 385Z" fill="#C51934"/>
     <path d="M265.438 404.973C264.863 405.873 264.203 406.713 263.465 407.483C263.728 407.488 263.985 407.5 264.25 407.5C267.575 407.5 270.623 406.965 273 406.073V403.543C270.903 404.333 268.313 404.863 265.438 404.973Z" fill="#C51934"/>
     <path d="M275.5 382.338V384.811C277.055 383.798 278 382.581 278 381.253V378.753C278 380.086 277.07 381.321 275.5 382.338Z" fill="#C51934"/>
     <path d="M275.5 387.302V389.805C277.052 388.795 278 387.577 278 386.25V383.75C278 385.075 277.05 386.292 275.5 387.302Z" fill="#C51934"/>
     <path d="M275.5 392.31V394.81C277.058 393.797 278 392.578 278 391.25V388.75C278 390.078 277.058 391.3 275.5 392.31Z" fill="#C51934"/>
     <path d="M275.5 397.305V399.803C277.05 398.793 278 397.575 278 396.25V393.75C278 395.078 277.055 396.295 275.5 397.305Z" fill="#C51934"/>
     <path d="M275.5 402.307V404.834C277.07 403.819 278 402.584 278 401.247V398.747C278 400.077 277.055 401.297 275.5 402.307Z" fill="#C51934"/>
     <circle cx="234.5" cy="372.5" r="1.5" fill="#C51934"/>
     <circle cx="247.5" cy="412.5" r="1.5" fill="#FFAA1B"/>
     <circle cx="269.5" cy="416.5" r="1.5" fill="#C51934"/>
     <circle cx="286.5" cy="392.5" r="1.5" fill="#FFAA1B"/>
     <circle cx="276.5" cy="368.5" r="1.5" fill="#C51934"/>
     <circle cx="238.5" cy="367.5" r="1.5" fill="#FFAA1B"/>
     </g>
     <g class="main-icon-1_1">
     <path d="M409.64 241.76L404.48 237.04C404.24 236.84 403.96 236.72 403.64 236.72C403.32 236.72 403.04 236.88 402.8 237.12C402.44 237.52 402.4 238.12 402.68 238.56L402.84 238.8C403.68 240.08 404.6 241.24 405.64 242.36L406.6 243.4C406.76 243.56 406.84 243.76 406.8 243.96C406.8 244.16 406.72 244.36 406.56 244.52C406.4 244.68 406.2 244.76 406 244.72C405.8 244.72 405.6 244.64 405.44 244.48L404.52 243.52C403.36 242.32 402.36 241 401.44 239.6L401.36 239.44C400.68 238.4 400.76 237.04 401.56 236.12C401.64 236.04 401.72 235.96 401.8 235.88L399.68 231.88C399.44 231.4 398.92 231.12 398.4 231.16C398 231.16 397.64 231.36 397.4 231.64C397.16 231.96 397.04 232.32 397.08 232.72L398.52 243.52C398.64 244.52 399.16 245.44 399.96 246.08L404.08 249.4C404.32 249.6 404.48 249.88 404.52 250.2L404.84 252.6C404.88 252.84 405.08 253 405.28 253H411.44C411.72 253 411.92 252.76 411.88 252.48L410.72 243.72C410.56 242.96 410.2 242.28 409.64 241.76Z" fill="#C51934"/>
     <path d="M430.6 231.6C430.36 231.28 430 231.12 429.6 231.12C429.08 231.08 428.56 231.4 428.32 231.84L426.2 235.84C426.28 235.92 426.36 236 426.44 236.08C427.24 237 427.32 238.36 426.64 239.4L426.56 239.56C425.64 240.96 424.6 242.24 423.48 243.48L422.56 244.44C422.4 244.6 422.2 244.68 422 244.68C421.8 244.68 421.6 244.6 421.44 244.48C421.28 244.32 421.2 244.12 421.2 243.92C421.2 243.72 421.28 243.52 421.4 243.36L422.36 242.32C423.4 241.2 424.36 240.04 425.16 238.76L425.32 238.52C425.6 238.08 425.56 237.48 425.2 237.08C425 236.84 424.68 236.72 424.36 236.68C424.04 236.68 423.72 236.76 423.52 237L418.36 241.76C417.8 242.28 417.4 242.96 417.28 243.72L416.12 252.48C416.08 252.76 416.28 253 416.56 253H422.72C422.96 253 423.16 252.84 423.16 252.6L423.48 250.2C423.52 249.88 423.68 249.6 423.92 249.4L428.04 246.08C428.84 245.44 429.36 244.52 429.48 243.52L430.92 232.72C430.96 232.28 430.84 231.92 430.6 231.6Z" fill="#C51934"/>
     <path d="M422.04 228.96C422.8 229.24 423.68 229.4 424.56 229.4C428.52 229.4 431.76 226.16 431.76 222.2C431.76 218.24 428.56 215 424.56 215C420.6 215 417.36 218.2 417.36 222.2C417.36 223 417.48 223.76 417.72 224.48C419.64 225.4 421.2 226.96 422.04 228.96ZM420.56 222.76C420.56 222.64 420.68 222.52 420.8 222.52H421.36C421.36 222.4 421.36 222.28 421.36 222.16C421.36 222.04 421.36 221.92 421.36 221.8H420.8C420.68 221.8 420.56 221.68 420.56 221.6V220.92C420.56 220.8 420.68 220.72 420.8 220.72H421.6C422.16 219.16 423.52 218.08 425.04 218.08C425.96 218.08 426.84 218.48 427.52 219.16C427.56 219.2 427.6 219.28 427.6 219.32C427.6 219.4 427.56 219.44 427.52 219.48L426.76 220.16C426.68 220.24 426.56 220.24 426.44 220.16C426.04 219.76 425.52 219.56 425.04 219.56C424.32 219.56 423.6 220 423.2 220.72H425.12C425.24 220.72 425.36 220.8 425.36 220.92V221.6C425.36 221.72 425.24 221.8 425.12 221.8H422.84C422.84 221.92 422.8 222.04 422.8 222.16C422.8 222.28 422.8 222.4 422.84 222.52H425.12C425.24 222.52 425.36 222.64 425.36 222.76V223.44C425.36 223.56 425.24 223.64 425.12 223.64H423.2C423.6 224.36 424.32 224.8 425.04 224.8C425.56 224.8 426.04 224.6 426.44 224.2C426.52 224.12 426.64 224.12 426.76 224.2L427.52 224.88C427.56 224.92 427.6 224.96 427.6 225.04C427.6 225.12 427.6 225.16 427.52 225.2C426.84 225.88 425.96 226.28 425.04 226.28C423.52 226.28 422.16 225.24 421.6 223.64H420.8C420.68 223.64 420.56 223.52 420.56 223.44V222.76Z" fill="#FFAA1B"/>
     <path d="M403.48 229.4C404.36 229.4 405.2 229.24 406 228.96C406.84 227 408.4 225.44 410.32 224.52C410.56 223.8 410.68 223.04 410.68 222.24C410.68 218.28 407.44 215.04 403.48 215.04C399.52 215.04 396.28 218.24 396.28 222.24C396.28 226.16 399.48 229.4 403.48 229.4ZM400.68 218.52H401.84C401.92 218.52 401.96 218.56 402 218.6L403.48 220.92L404.96 218.6C405 218.56 405.04 218.52 405.12 218.52H406.28C406.44 218.52 406.52 218.68 406.44 218.8L404.2 222.32H405.44C405.52 222.32 405.56 222.36 405.56 222.44V223.12C405.56 223.2 405.52 223.24 405.44 223.24H404.16V223.84H405.44C405.52 223.84 405.56 223.88 405.56 223.96V224.64C405.56 224.72 405.52 224.76 405.44 224.76H404.16V226.12C404.16 226.24 404.08 226.32 403.96 226.32H403C402.88 226.32 402.8 226.24 402.8 226.12V224.76H401.52C401.44 224.76 401.4 224.68 401.4 224.64V223.96C401.4 223.88 401.44 223.84 401.52 223.84H402.8V223.24H401.52C401.44 223.24 401.4 223.16 401.4 223.12V222.44C401.4 222.36 401.44 222.32 401.52 222.32H402.76L400.52 218.8C400.44 218.68 400.56 218.52 400.68 218.52Z" fill="#FFAA1B"/>
     <path d="M421.2 232.4C421.2 228.44 417.96 225.2 414 225.2C410.04 225.2 406.8 228.44 406.8 232.4C406.8 236.36 410.04 239.6 414 239.6C417.96 239.6 421.2 236.4 421.2 232.4ZM413.68 231.76H414.28C415.52 231.76 416.56 232.84 416.44 234.12C416.36 235.08 415.6 235.84 414.64 236V236.88C414.64 236.96 414.56 237.04 414.48 237.04H413.52C413.44 237.04 413.36 236.96 413.36 236.88V236.04C412.4 235.88 411.64 235.08 411.56 234.12C411.56 234 411.64 233.92 411.72 233.92H412.68C412.76 233.92 412.84 233.96 412.84 234.04C412.92 234.44 413.24 234.72 413.64 234.72H414.2C414.6 234.72 415 234.44 415.08 234.04C415.16 233.52 414.76 233.08 414.28 233.08H413.76C412.64 233.08 411.64 232.28 411.52 231.16C411.4 230 412.2 229 413.32 228.84V228C413.32 227.92 413.4 227.84 413.48 227.84H414.44C414.52 227.84 414.6 227.92 414.6 228V228.8C415.56 228.96 416.32 229.76 416.4 230.72C416.4 230.84 416.32 230.92 416.24 230.92H415.28C415.2 230.92 415.12 230.88 415.12 230.8C415.04 230.4 414.72 230.12 414.32 230.12H413.76C413.36 230.12 412.96 230.4 412.88 230.8C412.8 231.32 413.2 231.76 413.68 231.76Z" fill="#FFAA1B"/>
     <circle cx="390.5" cy="216.5" r="1.5" fill="#C51934"/>
     <circle cx="403.5" cy="256.5" r="1.5" fill="#FFAA1B"/>
     <circle cx="425.5" cy="260.5" r="1.5" fill="#C51934"/>
     <circle cx="442.5" cy="236.5" r="1.5" fill="#FFAA1B"/>
     <circle cx="432.5" cy="212.5" r="1.5" fill="#C51934"/>
     <circle cx="394.5" cy="211.5" r="1.5" fill="#FFAA1B"/>
     </g>
     </svg>
