<svg width="24" height="24" viewBox="0 0 24 24" fill="none" xmlns="http://www.w3.org/2000/svg">
<path fill-rule="evenodd" clip-rule="evenodd" d="M7.29401 9.29259C7.48153 9.10512 7.73584 8.99981 8.00101 8.99981C8.26617 8.99981 8.52048 9.10512 8.70801 9.29259L12.001 12.5856L15.294 9.29259C15.3863 9.19708 15.4966 9.1209 15.6186 9.06849C15.7406 9.01608 15.8718 8.9885 16.0046 8.98734C16.1374 8.98619 16.2691 9.01149 16.392 9.06177C16.5149 9.11205 16.6265 9.18631 16.7204 9.2802C16.8143 9.37409 16.8885 9.48574 16.9388 9.60864C16.9891 9.73154 17.0144 9.86321 17.0133 9.99599C17.0121 10.1288 16.9845 10.26 16.9321 10.382C16.8797 10.504 16.8035 10.6143 16.708 10.7066L12.708 14.7066C12.5205 14.8941 12.2662 14.9994 12.001 14.9994C11.7358 14.9994 11.4815 14.8941 11.294 14.7066L7.29401 10.7066C7.10654 10.5191 7.00122 10.2648 7.00122 9.99959C7.00122 9.73443 7.10654 9.48012 7.29401 9.29259Z" fill="#AFAFAF"/>
</svg>
