<svg width="24" height="24" viewBox="0 0 24 24" fill="none" xmlns="http://www.w3.org/2000/svg">
<path d="M11.9997 7.33203C8.96937 7.33203 6.38149 9.26714 5.33301 11.9987C6.38149 14.7303 8.96937 16.6654 11.9997 16.6654C15.03 16.6654 17.6179 14.7303 18.6663 11.9987C17.6179 9.26714 15.03 7.33203 11.9997 7.33203ZM11.9997 15.1098C10.3269 15.1098 8.96937 13.716 8.96937 11.9987C8.96937 10.2814 10.3269 8.88759 11.9997 8.88759C13.6724 8.88759 15.03 10.2814 15.03 11.9987C15.03 13.716 13.6724 15.1098 11.9997 15.1098ZM11.9997 10.132C10.9936 10.132 10.1815 10.9658 10.1815 11.9987C10.1815 13.0316 10.9936 13.8654 11.9997 13.8654C13.0057 13.8654 13.8179 13.0316 13.8179 11.9987C13.8179 10.9658 13.0057 10.132 11.9997 10.132Z" fill="#353744"/>
<path d="M11.9997 7.33203C8.96937 7.33203 6.38149 9.26714 5.33301 11.9987C6.38149 14.7303 8.96937 16.6654 11.9997 16.6654C15.03 16.6654 17.6179 14.7303 18.6663 11.9987C17.6179 9.26714 15.03 7.33203 11.9997 7.33203ZM11.9997 15.1098C10.3269 15.1098 8.96937 13.716 8.96937 11.9987C8.96937 10.2814 10.3269 8.88759 11.9997 8.88759C13.6724 8.88759 15.03 10.2814 15.03 11.9987C15.03 13.716 13.6724 15.1098 11.9997 15.1098ZM11.9997 10.132C10.9936 10.132 10.1815 10.9658 10.1815 11.9987C10.1815 13.0316 10.9936 13.8654 11.9997 13.8654C13.0057 13.8654 13.8179 13.0316 13.8179 11.9987C13.8179 10.9658 13.0057 10.132 11.9997 10.132Z" fill="white" fill-opacity="0.32"/>
</svg>
