<svg width="552" height="360" viewBox="0 0 552 360" fill="none" xmlns="http://www.w3.org/2000/svg">
<path d="M0 0H552V360H0V0Z" fill="#FFAA1B"/>
<path d="M0 0H552V360H0V0Z" fill="white" fill-opacity="0.75"/>
<mask id="mask0_16_2" style="mask-type:alpha" maskUnits="userSpaceOnUse" x="0" y="0" width="552" height="360">
<path d="M0 0H552V360H0V0Z" fill="#C51934"/>
<path d="M0 0H552V360H0V0Z" fill="white" fill-opacity="0.32"/>
</mask>
<g mask="url(#mask0_16_2)">
<path d="M552 360V272C512.236 272 480 311.399 480 360H552Z" fill="#FFAA1B"/>
<path d="M0 88V128L34 88H0Z" fill="#851B5A"/>
<path d="M0 48V87.9999H34L0 48Z" fill="#851B5A"/>
<path d="M246.283 145.217C244.882 143.816 242.618 143.816 241.217 145.217C239.816 146.618 239.816 148.882 241.217 150.283L244.467 153.534C241.876 155.501 240.167 158.582 240.167 162.083V197.917C240.167 203.844 244.99 208.667 250.917 208.667H299.6L305.717 214.783C306.415 215.482 307.333 215.833 308.25 215.833C309.167 215.833 310.085 215.482 310.783 214.783C312.184 213.382 312.184 211.118 310.783 209.717L246.283 145.217ZM254.693 163.76C252.414 165.387 250.917 168.035 250.917 171.042C250.917 175.983 254.934 180 259.875 180C262.881 180 265.529 178.502 267.156 176.223L274.516 183.583L268.833 189.267L265.684 186.117C261.491 181.924 254.676 181.924 250.483 186.117L247.333 189.267V162.083C247.333 160.543 248.315 159.256 249.68 158.747L254.693 163.76Z" fill="#851B5A"/>
<path d="M301.083 151.333H261.667L268.833 158.5H301.083C303.054 158.5 304.667 160.112 304.667 162.083V186.665L294.562 178.241C292.161 176.234 289.043 175.41 286.033 175.696L311.367 201.031C311.654 200.031 311.833 198.992 311.833 197.917V162.083C311.833 156.171 306.996 151.333 301.083 151.333Z" fill="#851B5A"/>
</g>
</svg>
