<svg width="80" height="80" viewBox="0 0 80 80" fill="none" xmlns="http://www.w3.org/2000/svg">
<circle cx="40" cy="40" r="40" fill="white"/>
<circle cx="18.5" cy="21.5" r="1.5" fill="#C51934"/>
<circle cx="31.5" cy="61.5" r="1.5" fill="#FFAA1B"/>
<circle cx="53.5" cy="65.5" r="1.5" fill="#C51934"/>
<circle cx="70.5" cy="41.5" r="1.5" fill="#FFAA1B"/>
<circle cx="60.5" cy="17.5" r="1.5" fill="#C51934"/>
<circle cx="22.5" cy="16.5" r="1.5" fill="#FFAA1B"/>
<path d="M37.7417 32.303C36.6755 32.7166 36.3795 34.0981 37.1932 34.9125C38.6817 36.4018 37.9276 35.6473 41.3633 39.0852C42.478 40.1999 44.2845 40.2035 45.4028 39.0852C47.9266 36.5597 46.9936 37.4933 49.5729 34.9125C50.5717 33.913 49.8663 32.1953 48.447 32.1953H46.6867C46.6867 31.6462 46.6865 25.9948 46.6865 25.4453C46.6865 24.2046 45.6771 23.1953 44.4365 23.1953H42.3291C41.0888 23.1953 40.0798 24.2044 40.0798 25.4446C40.0798 30.2457 40.0794 22.3586 40.0794 32.1953C38.2211 32.1953 38.1117 32.1596 37.7417 32.303Z" fill="#FFAA1B"/>
<path d="M56.9453 50.2422C27.7175 50.2422 29.0208 50.2476 29.0189 50.2324C28.6986 47.6672 28.7115 47.8313 28.7324 47.8282C42.7576 47.7553 9.2212 47.8328 54.6123 47.8328C56.5037 47.8328 57.9297 46.3998 57.9297 44.5V30.209C57.9297 28.8238 56.8026 27.6946 55.4181 27.6925L48.7961 27.6813V30.1021C51.9022 30.3933 53.2801 34.187 51.0651 36.4035L46.8948 40.5759C44.9544 42.5177 41.8122 42.5182 39.8713 40.5759L35.7011 36.4035C33.4871 34.188 34.8631 30.3933 37.9701 30.1021V27.6623L30.7135 27.6497L30.0114 23.7831C29.8238 22.75 28.9255 22 27.8754 22H23.0547C22.4722 22 22 22.4722 22 23.0547C22 23.6372 22.4722 24.1094 23.0547 24.1094H27.8754C28.1067 24.1094 30.3152 38.6217 31.422 45.7048L28.7229 45.7189C27.4553 45.7237 26.4686 46.8363 26.6268 48.1024L26.9258 50.4941C27.0582 51.553 27.9628 52.3516 29.0299 52.3516H30.9016C29.5797 54.9183 31.4519 58 34.3516 58C37.2499 58 39.1241 54.9194 37.8016 52.3516H47.8469C46.5249 54.9183 48.3972 58 51.2969 58C54.1952 58 56.0694 54.9195 54.7469 52.3516H56.9453C57.5278 52.3516 58 51.8794 58 51.2969C58 50.7144 57.5278 50.2422 56.9453 50.2422Z" fill="#C51934"/>
</svg>
