<svg width="80" height="80" viewBox="0 0 80 80" fill="none" xmlns="http://www.w3.org/2000/svg">
<circle cx="40" cy="40" r="40" fill="white"/>
<circle cx="18.5" cy="21.5" r="1.5" fill="#C51934"/>
<circle cx="31.5" cy="61.5" r="1.5" fill="#FFAA1B"/>
<circle cx="53.5" cy="65.5" r="1.5" fill="#C51934"/>
<circle cx="70.5" cy="41.5" r="1.5" fill="#FFAA1B"/>
<circle cx="60.5" cy="17.5" r="1.5" fill="#C51934"/>
<circle cx="22.5" cy="16.5" r="1.5" fill="#FFAA1B"/>
<g clip-path="url(#clip0_3436_33818)">
<path d="M50.6451 34.2008C50.1666 34.3603 49.8438 34.8081 49.8438 35.3125C49.8438 35.8169 50.1666 36.2647 50.6451 36.4242C52.1314 36.9197 53.3147 38.1029 53.8102 39.5893C53.9697 40.0678 54.4175 40.3906 54.9219 40.3906C55.4262 40.3906 55.8741 40.0678 56.0336 39.5893C56.5291 38.103 57.7123 36.9197 59.1987 36.4242C59.6772 36.2647 60 35.8169 60 35.3125C60 34.8081 59.6772 34.3603 59.1987 34.2008C57.7123 33.7053 56.5291 32.5221 56.0336 31.0357C55.8741 30.5572 55.4262 30.2344 54.9219 30.2344C54.4175 30.2344 53.9697 30.5572 53.8102 31.0357C53.3147 32.522 52.1314 33.7053 50.6451 34.2008Z" fill="#C51934"/>
<path d="M20.8013 37.9867C22.2877 38.4822 23.4709 39.6654 23.9664 41.1518C24.1259 41.6303 24.5738 41.9531 25.0781 41.9531C25.5825 41.9531 26.0303 41.6303 26.1898 41.1518C26.6853 39.6655 27.8685 38.4822 29.3549 37.9867C29.8334 37.8272 30.1562 37.3794 30.1562 36.875C30.1562 36.3706 29.8334 35.9228 29.3549 35.7633C27.8686 35.2678 26.6853 34.0846 26.1898 32.5982C26.0303 32.1197 25.5825 31.7969 25.0781 31.7969C24.5738 31.7969 24.1259 32.1197 23.9664 32.5982C23.4709 34.0845 22.2877 35.2678 20.8013 35.7633C20.3228 35.9228 20 36.3706 20 36.875C20 37.3794 20.3228 37.8272 20.8013 37.9867Z" fill="#C51934"/>
<path d="M40 27.8906C40.6473 27.8906 41.1719 27.3659 41.1719 26.7188V22.8125C41.1719 22.1653 40.6472 21.6406 40 21.6406C39.3528 21.6406 38.8281 22.1653 38.8281 22.8125V26.7188C38.8281 27.3659 39.3528 27.8906 40 27.8906Z" fill="#C51934"/>
<path d="M33.8216 28.0146C34.043 28.6228 34.7155 28.9364 35.3237 28.715C35.9319 28.4937 36.2454 27.8212 36.0241 27.213L34.688 23.5424C34.4666 22.9342 33.7941 22.6207 33.1859 22.842C32.5777 23.0633 32.2642 23.7358 32.4855 24.344L33.8216 28.0146Z" fill="#C51934"/>
<path d="M29.5609 30.9448C29.9769 31.4406 30.7161 31.5053 31.2119 31.0893H31.2119C31.7077 30.6732 31.7724 29.9341 31.3564 29.4383L28.8455 26.446C28.4295 25.9502 27.6904 25.8855 27.1946 26.3015H27.1945C26.6987 26.7175 26.634 27.4567 27.0501 27.9525L29.5609 30.9448Z" fill="#C51934"/>
<path d="M44.6759 28.715C45.2841 28.9364 45.9565 28.6228 46.1779 28.0146L47.514 24.344C47.7354 23.7358 47.4219 23.0634 46.8137 22.842C46.2054 22.6207 45.533 22.9342 45.3116 23.5424L43.9755 27.213C43.7542 27.8212 44.0677 28.4937 44.6759 28.715Z" fill="#C51934"/>
<path d="M48.788 31.0892C49.2838 31.5053 50.023 31.4406 50.439 30.9448L52.9499 27.9525C53.3659 27.4567 53.3012 26.7175 52.8054 26.3015H52.8053C52.3095 25.8855 51.5704 25.9502 51.1544 26.446L48.6435 29.4383C48.2276 29.9339 48.2922 30.6731 48.788 31.0892Z" fill="#C51934"/>
<path d="M58.4029 52.1505C58.25 51.6613 57.7969 51.3281 57.2844 51.3281H50.8406C50.3281 51.3281 49.875 51.6613 49.7221 52.1505L48.2573 56.838C48.0215 57.5926 48.5852 58.3594 49.3758 58.3594H58.7492C59.5398 58.3594 60.1036 57.5926 59.8677 56.838L58.4029 52.1505Z" fill="#FFAA1B"/>
<path d="M44.3404 52.1505C44.1875 51.6613 43.7344 51.3281 43.2219 51.3281H36.7781C36.2656 51.3281 35.8125 51.6613 35.6596 52.1505L34.1948 56.838C33.959 57.5926 34.5227 58.3594 35.3133 58.3594H44.6867C45.4773 58.3594 46.0411 57.5926 45.8052 56.838L44.3404 52.1505Z" fill="#FFAA1B"/>
<path d="M30.2779 52.1505C30.125 51.6613 29.6719 51.3281 29.1594 51.3281H22.7156C22.2031 51.3281 21.75 51.6613 21.5971 52.1505L20.1323 56.838C19.8965 57.5926 20.4602 58.3594 21.2508 58.3594H30.6242C31.4149 58.3594 31.9786 57.5926 31.7427 56.838L30.2779 52.1505Z" fill="#FFAA1B"/>
<path d="M36.1906 41.9531H29.7469C29.2343 41.9531 28.7813 42.2863 28.6284 42.7755L27.1635 47.463C26.9277 48.2176 27.4915 48.9844 28.282 48.9844H37.6555C38.4461 48.9844 39.0099 48.2176 38.774 47.463L37.3091 42.7755C37.1563 42.2863 36.7031 41.9531 36.1906 41.9531Z" fill="#FFAA1B"/>
<path d="M50.2531 41.9531H43.8094C43.2968 41.9531 42.8438 42.2863 42.6909 42.7755L41.226 47.463C40.9902 48.2176 41.554 48.9844 42.3445 48.9844H51.718C52.5086 48.9844 53.0723 48.2176 52.8365 47.463L51.3716 42.7755C51.2187 42.2863 50.7656 41.9531 50.2531 41.9531Z" fill="#FFAA1B"/>
<path d="M35.6596 33.4005L34.1948 38.088C33.959 38.8426 34.5227 39.6094 35.3133 39.6094H44.6867C45.4773 39.6094 46.0411 38.8426 45.8052 38.088L44.3404 33.4005C44.1875 32.9113 43.7344 32.5781 43.2219 32.5781H36.7781C36.2656 32.5781 35.8125 32.9113 35.6596 33.4005Z" fill="#FFAA1B"/>
</g>
<defs>
<clipPath id="clip0_3436_33818">
<rect width="40" height="40" fill="white" transform="translate(20 20)"/>
</clipPath>
</defs>
</svg>
