<svg width="80" height="80" viewBox="0 0 80 80" fill="none" xmlns="http://www.w3.org/2000/svg">
<circle cx="40" cy="40" r="40" fill="white"/>
<circle cx="15.5" cy="33.5" r="1.5" fill="#C51934"/>
<circle cx="24.5" cy="60.5" r="1.5" fill="#FFAA1B"/>
<circle cx="56.5" cy="66.5" r="1.5" fill="#C51934"/>
<circle cx="71.5" cy="35.5" r="1.5" fill="#FFAA1B"/>
<circle cx="45.5" cy="11.5" r="1.5" fill="#C51934"/>
<circle cx="37.5" cy="13.5" r="1.5" fill="#FFAA1B"/>
<path d="M35.1725 21.8965H25.5174C23.5178 21.8965 21.8967 23.5175 21.8967 25.5171V42.4135C21.8967 44.4132 23.5178 46.0342 25.5174 46.0342H35.1725C37.1721 46.0342 38.7931 44.4132 38.7931 42.4135V25.5171C38.7931 23.5175 37.1721 21.8965 35.1725 21.8965Z" fill="#FFAA1B"/>
<path d="M35.1725 48.4482H25.5174C23.5178 48.4482 21.8967 50.0693 21.8967 52.0689V54.4827C21.8967 56.4823 23.5178 58.1033 25.5174 58.1033H35.1725C37.1721 58.1033 38.7931 56.4823 38.7931 54.4827V52.0689C38.7931 50.0693 37.1721 48.4482 35.1725 48.4482Z" fill="#C51934"/>
<path d="M54.4825 33.9653H44.8274C42.8278 33.9653 41.2068 35.5864 41.2068 37.586V54.4824C41.2068 56.482 42.8278 58.103 44.8274 58.103H54.4825C56.4822 58.103 58.1032 56.482 58.1032 54.4824V37.586C58.1032 35.5864 56.4822 33.9653 54.4825 33.9653Z" fill="#C51934"/>
<path d="M54.4825 21.8965H44.8274C42.8278 21.8965 41.2068 23.5175 41.2068 25.5171V27.9309C41.2068 29.9305 42.8278 31.5516 44.8274 31.5516H54.4825C56.4822 31.5516 58.1032 29.9305 58.1032 27.9309V25.5171C58.1032 23.5175 56.4822 21.8965 54.4825 21.8965Z" fill="#FFAA1B"/>
</svg>
