<svg width="80" height="80" viewBox="0 0 80 80" fill="none" xmlns="http://www.w3.org/2000/svg">
<circle cx="40" cy="40" r="40" fill="white"/>
<circle cx="11.5" cy="36.5" r="1.5" fill="#C51934"/>
<circle cx="26.5" cy="63.5" r="1.5" fill="#FFAA1B"/>
<circle cx="60.5" cy="54.5" r="1.5" fill="#C51934"/>
<circle cx="69.5" cy="44.5" r="1.5" fill="#FFAA1B"/>
<circle cx="61.5" cy="15.5" r="1.5" fill="#C51934"/>
<circle cx="36.5" cy="9.5" r="1.5" fill="#FFAA1B"/>
<path d="M35.4799 45.8401C34.8399 44.8001 33.7599 43.4801 32.6799 42.2401C31.7199 41.1601 30.7199 40.0401 30.0399 39.0001C29.5599 38.2401 28.6399 38.2401 27.9999 38.6401C27.1999 39.1201 26.6399 40.2001 27.4799 41.8001C27.9199 42.6801 28.9599 43.8001 30.0799 45.0401C30.1599 45.1201 30.1999 45.2001 30.2799 45.2801C30.5199 45.5601 30.4799 46.0001 30.1599 46.2401C29.9199 46.4001 29.5599 46.3201 29.3599 46.1201C29.3199 46.0401 29.2399 46.0001 29.1999 45.9201C28.3199 44.9601 27.5599 44.1201 26.9999 43.3601C26.7599 43.0401 26.5599 42.7201 26.3999 42.4401C25.7599 41.1601 25.7199 40.0401 26.0799 39.2001C25.4799 37.9201 24.9999 36.7201 24.7599 35.9601C24.0399 33.7201 20.9999 34.2801 21.1199 36.6801C21.2399 39.0801 22.1199 47.1601 24.4399 49.8801C25.5199 51.1201 27.4399 52.8001 29.4799 54.2401C29.7999 54.4801 29.9999 54.8401 29.9999 55.2001V56.8401C29.9999 57.3201 30.3999 57.7201 30.8799 57.7201H36.6399C37.1599 57.7201 37.5599 57.3201 37.5199 56.8001C37.4799 55.8001 37.4399 54.2001 37.3599 52.7601C37.0399 49.7601 36.1599 47.0001 35.4799 45.8401Z" fill="#C51934"/>
<path d="M55.36 35.84C55.12 36.6 54.6 37.8 54.04 39.08C54.36 39.96 54.36 41.08 53.72 42.32C53.56 42.6 53.36 42.92 53.12 43.24C52.56 44.04 51.76 44.88 50.92 45.8C50.88 45.88 50.8 45.92 50.76 46C50.56 46.24 50.2 46.28 49.96 46.12C49.64 45.92 49.6 45.44 49.84 45.16C49.92 45.08 49.96 45 50.04 44.92C51.16 43.72 52.2 42.56 52.64 41.68C53.48 40.04 52.92 38.96 52.12 38.52C51.48 38.12 50.56 38.12 50.08 38.88C49.36 39.96 48.4 41.08 47.44 42.12C46.32 43.36 45.24 44.68 44.64 45.72C43.96 46.88 43.04 49.64 42.88 52.56C42.8 54 42.76 55.6 42.72 56.6C42.72 57.12 43.12 57.52 43.6 57.52H49.36C49.84 57.52 50.24 57.12 50.24 56.64V55C50.24 54.6 50.44 54.24 50.76 54.04C52.8 52.64 54.72 50.96 55.8 49.68C58.16 46.96 59 38.88 59.12 36.48C59.12 34.16 56.08 33.6 55.36 35.84Z" fill="#C51934"/>
<path d="M47.3665 35.72C47.3665 31.6 44.0065 28.24 39.8865 28.24C35.7665 28.24 32.4065 31.6 32.4065 35.72C32.4065 39.84 35.7665 43.2 39.8865 43.2C44.0065 43.2 47.3665 39.84 47.3665 35.72ZM40.5265 39.44V40.4C40.5265 40.52 40.4465 40.6 40.3265 40.6H39.4065C39.2865 40.6 39.2065 40.52 39.2065 40.4V39.48C38.2865 39.4 37.5265 38.68 37.4065 37.76C37.4065 37.64 37.4865 37.56 37.6065 37.56H38.5265C38.6065 37.56 38.6865 37.6 38.6865 37.68C38.7665 37.96 39.0065 38.2 39.3265 38.2H40.1265C40.6065 38.2 41.0465 37.84 41.0865 37.4C41.1265 36.84 40.7265 36.4 40.1665 36.4H39.5665C38.4065 36.4 37.4065 35.56 37.2865 34.44C37.1665 33.24 38.0465 32.2 39.1665 32.04V31.12C39.1665 31.04 39.2465 30.92 39.3665 30.92H40.2865C40.3665 30.92 40.4865 31 40.4865 31.12V32.04C41.4065 32.12 42.1665 32.84 42.2865 33.76C42.2865 33.88 42.2065 33.96 42.0865 33.96H41.1665C41.0865 33.96 41.0065 33.92 41.0065 33.84C40.9265 33.56 40.6865 33.32 40.3665 33.32H39.5665C39.0865 33.32 38.6465 33.68 38.6065 34.12C38.5665 34.68 38.9665 35.12 39.5265 35.12H40.2065C41.4865 35.12 42.5265 36.24 42.4065 37.52C42.3265 38.52 41.4865 39.28 40.5265 39.44Z" fill="#FFAA1B"/>
<path d="M39.8864 25.7602C40.6064 25.7602 41.1664 25.2002 41.1664 24.4802V21.2802C41.1664 20.5602 40.6064 20.0002 39.8864 20.0002C39.1664 20.0002 38.6064 20.5602 38.6064 21.2802V24.4802C38.6064 25.2002 39.1664 25.7602 39.8864 25.7602Z" fill="#FFAA1B"/>
<path d="M31.0465 28.68C31.2865 28.92 31.6065 29.04 31.9665 29.04C32.3265 29.04 32.6065 28.92 32.8865 28.68C33.4065 28.16 33.4065 27.36 32.8865 26.88L30.5665 24.6C30.0465 24.08 29.2465 24.08 28.7665 24.6C28.2465 25.12 28.2465 25.92 28.7665 26.4L31.0465 28.68Z" fill="#FFAA1B"/>
<path d="M47.8467 29.0805C48.1667 29.0805 48.4867 28.9605 48.7667 28.7205L51.0467 26.4405C51.5667 25.9205 51.5667 25.1205 51.0467 24.6405C50.5267 24.1605 49.7267 24.1205 49.2467 24.6405L46.9667 26.9205C46.4467 27.4405 46.4467 28.2405 46.9667 28.7205C47.1667 28.9605 47.4867 29.0805 47.8467 29.0805Z" fill="#FFAA1B"/>
</svg>
