<svg width="80" height="80" viewBox="0 0 80 80" fill="none" xmlns="http://www.w3.org/2000/svg">
<circle cx="40" cy="40" r="40" fill="white"/>
<circle cx="15.5" cy="33.5" r="1.5" fill="#C51934"/>
<circle cx="24.5" cy="60.5" r="1.5" fill="#FFAA1B"/>
<circle cx="56.5" cy="66.5" r="1.5" fill="#C51934"/>
<circle cx="71.5" cy="35.5" r="1.5" fill="#FFAA1B"/>
<circle cx="45.5" cy="11.5" r="1.5" fill="#C51934"/>
<circle cx="37.5" cy="13.5" r="1.5" fill="#FFAA1B"/>
<path d="M42.1262 21.853H41.063V38.9359H58.1458V37.8726C58.1458 29.078 50.9208 21.853 42.1262 21.853Z" fill="#FFAA1B"/>
<path d="M27.3882 54.1135C30.1947 56.5712 33.8577 58.1448 37.8729 58.1448C46.6675 58.1448 53.8216 50.9199 53.8216 42.1253V41.062H40.4397L27.3882 54.1135Z" fill="#C51934"/>
<path d="M38.9361 26.1772H37.8729C34.4008 26.1772 31.1942 27.3049 28.5728 29.1958L38.9361 39.5592V26.1772Z" fill="#C51934"/>
<path d="M26.927 30.5562C23.8541 33.4651 21.8535 37.5695 21.8535 42.1252C21.8535 46.1404 23.4271 49.8033 25.8849 52.6099L37.4328 41.062L26.927 30.5562Z" fill="#C51934"/>
</svg>
