<svg width="80" height="80" viewBox="0 0 80 80" fill="none" xmlns="http://www.w3.org/2000/svg">
<circle cx="40" cy="40" r="40" fill="white"/>
<circle cx="7.5" cy="42.5" r="1.5" fill="#C51934"/>
<circle cx="31.5" cy="65.5" r="1.5" fill="#FFAA1B"/>
<circle cx="65.5" cy="56.5" r="1.5" fill="#C51934"/>
<circle cx="71.5" cy="37.5" r="1.5" fill="#FFAA1B"/>
<circle cx="52.5" cy="15.5" r="1.5" fill="#C51934"/>
<circle cx="24.5" cy="14.5" r="1.5" fill="#FFAA1B"/>
<path d="M56.8878 46.9156L49.4478 55.5756C48.8998 56.2039 48.2236 56.7075 47.4646 57.0525C46.7056 57.3975 45.8815 57.5758 45.0478 57.5756H33.4478L31.4158 59.5996L22.5078 52.2996L27.6238 47.2596C28.991 45.9104 30.7224 44.9898 32.6055 44.6111C34.4886 44.2323 36.4413 44.4118 38.2238 45.1276H44.5198C45.1468 45.1276 45.7481 45.3766 46.1914 45.82C46.6347 46.2633 46.8838 46.8646 46.8838 47.4916C46.8838 48.1186 46.6347 48.7198 46.1914 49.1632C45.7481 49.6065 45.1468 49.8556 44.5198 49.8556H39.6398C39.4611 49.8942 39.3009 49.9928 39.1861 50.1351C39.0712 50.2774 39.0086 50.4547 39.0086 50.6376C39.0086 50.8204 39.0712 50.9978 39.1861 51.1401C39.3009 51.2824 39.4611 51.381 39.6398 51.4196H45.1718C45.5645 51.4188 45.9526 51.3354 46.3109 51.1748C46.6693 51.0142 46.9898 50.7801 47.2518 50.4876L53.1998 43.6756C53.4128 43.4339 53.6713 43.2366 53.9606 43.0949C54.2498 42.9532 54.5642 42.8698 54.8857 42.8496C55.2071 42.8293 55.5295 42.8726 55.8342 42.9769C56.139 43.0813 56.4202 43.2446 56.6618 43.4576C56.9034 43.6706 57.1008 43.9291 57.2425 44.2184C57.3842 44.5076 57.4676 44.822 57.4878 45.1434C57.5081 45.4649 57.4648 45.7872 57.3605 46.092C57.2561 46.3967 57.0928 46.6779 56.8798 46.9196L56.8878 46.9156Z" fill="#C51934"/>
<path d="M55.4759 29.8313C55.327 27.3785 54.2855 25.065 52.5479 23.3274C50.8103 21.5897 48.4967 20.5482 46.0439 20.3993C45.9656 20.395 45.8872 20.4066 45.8136 20.4336C45.74 20.4606 45.6727 20.5024 45.6157 20.5563C45.5588 20.6102 45.5135 20.6752 45.4826 20.7473C45.4517 20.8193 45.4358 20.8969 45.4359 20.9753V30.1233C45.4359 30.2071 45.4692 30.2875 45.5284 30.3468C45.5877 30.406 45.6681 30.4393 45.7519 30.4393H54.8999C54.9783 30.4394 55.0559 30.4236 55.128 30.3926C55.2 30.3617 55.265 30.3164 55.3189 30.2595C55.3729 30.2025 55.4146 30.1352 55.4416 30.0616C55.4686 29.988 55.4802 29.9096 55.4759 29.8313ZM52.0959 38.4273C53.0715 36.9671 53.6455 35.2757 53.7599 33.5233C53.7648 33.4395 53.7525 33.3555 53.7238 33.2765C53.695 33.1976 53.6504 33.1254 53.5927 33.0643C53.535 33.0032 53.4654 32.9546 53.3882 32.9214C53.3111 32.8882 53.2279 32.8712 53.1439 32.8713H45.8879C45.8382 32.871 45.7895 32.8857 45.7482 32.9135C45.7069 32.9412 45.6749 32.9807 45.6564 33.0268C45.6378 33.073 45.6336 33.1237 45.6442 33.1722C45.6548 33.2208 45.6798 33.2651 45.7159 33.2993L51.1639 38.5233C51.2284 38.5848 51.3054 38.6315 51.3897 38.6603C51.4739 38.6891 51.5634 38.6993 51.652 38.6902C51.7406 38.6811 51.8262 38.6528 51.9028 38.6075C51.9794 38.5621 52.0453 38.5006 52.0959 38.4273ZM41.9119 23.2273H41.8599C39.3076 23.4159 36.9233 24.5704 35.1927 26.4557C33.462 28.341 32.5153 30.8152 32.5454 33.3742C32.5755 35.9333 33.5801 38.3845 35.3546 40.2286C37.1291 42.0727 39.5399 43.1709 42.0959 43.2993C42.2719 43.2993 42.4479 43.2993 42.6239 43.2993C45.0278 43.3064 47.3538 42.4473 49.1759 40.8793C49.2493 40.8143 49.3085 40.7349 49.3498 40.646C49.391 40.5571 49.4135 40.4606 49.4158 40.3626C49.418 40.2646 49.4 40.1671 49.3629 40.0764C49.3257 39.9857 49.2702 39.9036 49.1999 39.8353L42.6239 33.2553V23.9433C42.6244 23.8493 42.6064 23.7561 42.5709 23.669C42.5354 23.5819 42.4831 23.5027 42.417 23.4359C42.3509 23.369 42.2723 23.3158 42.1856 23.2794C42.0989 23.2429 42.0059 23.2239 41.9119 23.2233V23.2273Z" fill="#FFAA1B"/>
</svg>
