<svg width="80" height="80" viewBox="0 0 80 80" fill="none" xmlns="http://www.w3.org/2000/svg">
<circle cx="40" cy="40" r="40" fill="white"/>
<circle cx="7.5" cy="42.5" r="1.5" fill="#C51934"/>
<circle cx="31.5" cy="65.5" r="1.5" fill="#FFAA1B"/>
<circle cx="65.5" cy="56.5" r="1.5" fill="#C51934"/>
<circle cx="71.5" cy="37.5" r="1.5" fill="#FFAA1B"/>
<circle cx="52.5" cy="15.5" r="1.5" fill="#C51934"/>
<circle cx="24.5" cy="14.5" r="1.5" fill="#FFAA1B"/>
<path d="M52.7243 24.0031L44.3828 21.1654C44.135 21.0796 43.8649 21.0796 43.617 21.1654L35.2755 24.0031C34.7909 24.1668 34.4668 24.6196 34.4668 25.1312V31.5152C34.4668 39.3069 43.1642 43.0948 43.5344 43.2521C43.8331 43.3776 44.1667 43.3776 44.4654 43.2521C44.8356 43.0932 53.533 39.3069 53.533 31.5152V25.1312C53.533 24.6196 53.2089 24.1668 52.7243 24.0031ZM49.2209 30.028L44.8515 35.589C44.2954 36.2992 43.2531 36.4025 42.5684 35.8146L39.7879 33.4314C39.1205 32.861 39.0427 31.8568 39.6163 31.1911C40.1867 30.5254 41.1908 30.4491 41.855 31.0195L43.3771 32.3239L46.7216 28.0674C47.2634 27.3778 48.2612 27.2555 48.9524 27.8005C49.6435 28.3391 49.7643 29.3385 49.2209 30.028Z" fill="#FFAA1B"/>
<path d="M56.8878 46.9156L49.4478 55.5756C48.8998 56.2039 48.2236 56.7075 47.4646 57.0525C46.7056 57.3975 45.8815 57.5758 45.0478 57.5756H33.4478L31.4158 59.5996L22.5078 52.2996L27.6238 47.2596C28.991 45.9104 30.7224 44.9898 32.6055 44.6111C34.4886 44.2323 36.4413 44.4118 38.2238 45.1276H44.5198C45.1468 45.1276 45.7481 45.3766 46.1914 45.82C46.6347 46.2633 46.8838 46.8646 46.8838 47.4916C46.8838 48.1186 46.6347 48.7198 46.1914 49.1632C45.7481 49.6065 45.1468 49.8556 44.5198 49.8556H39.6398C39.4611 49.8942 39.3009 49.9928 39.1861 50.1351C39.0712 50.2774 39.0086 50.4547 39.0086 50.6376C39.0086 50.8204 39.0712 50.9978 39.1861 51.1401C39.3009 51.2824 39.4611 51.381 39.6398 51.4196H45.1718C45.5645 51.4188 45.9526 51.3354 46.3109 51.1748C46.6693 51.0142 46.9898 50.7801 47.2518 50.4876L53.1998 43.6756C53.4128 43.4339 53.6713 43.2366 53.9606 43.0949C54.2498 42.9532 54.5642 42.8698 54.8857 42.8496C55.2071 42.8293 55.5295 42.8726 55.8342 42.9769C56.139 43.0813 56.4202 43.2446 56.6618 43.4576C56.9034 43.6706 57.1008 43.9291 57.2425 44.2184C57.3842 44.5076 57.4676 44.822 57.4878 45.1434C57.5081 45.4649 57.4648 45.7872 57.3605 46.092C57.2561 46.3967 57.0928 46.6779 56.8798 46.9196L56.8878 46.9156Z" fill="#C51934"/>
</svg>
