<svg width="80" height="80" viewBox="0 0 80 80" fill="none" xmlns="http://www.w3.org/2000/svg">
<circle cx="40" cy="40" r="40" fill="white"/>
<circle cx="11.5" cy="36.5" r="1.5" fill="#C51934"/>
<circle cx="26.5" cy="63.5" r="1.5" fill="#FFAA1B"/>
<circle cx="60.5" cy="54.5" r="1.5" fill="#C51934"/>
<circle cx="69.5" cy="44.5" r="1.5" fill="#FFAA1B"/>
<circle cx="61.5" cy="15.5" r="1.5" fill="#C51934"/>
<circle cx="36.5" cy="9.5" r="1.5" fill="#FFAA1B"/>
<path d="M42.2228 48.6252V48.6454L42.2151 48.6663V48.6942L42.2082 48.7151V48.7353L42.2012 48.7632V48.7841L42.1942 48.805L42.1866 48.8259L42.1796 48.8538L42.1726 48.874L42.1657 48.8949L42.158 48.9228L42.151 48.9437L42.1441 48.9639L42.1294 48.9848L42.1225 49.0127L42.1085 49.0406L42.0876 49.0684L42.0737 49.1033L42.059 49.1312L42.0381 49.166L42.0102 49.2015L41.99 49.2364L41.9754 49.2566L41.9615 49.2712L41.9468 49.2922L41.9329 49.3124L41.9182 49.3333L41.898 49.3479L41.8834 49.3681L41.8625 49.389L41.8486 49.4037L41.8276 49.4239L41.8067 49.4385L41.7865 49.4587L41.7656 49.4734L41.7447 49.4943L41.7245 49.5082L41.7036 49.5291L41.6827 49.5431L41.6548 49.5577L41.6269 49.5786L41.599 49.5925L41.5712 49.6134L41.5433 49.6274L41.5084 49.6483L41.4806 49.6622L41.4178 49.6901L41.3621 49.718L41.3063 49.7459L41.2436 49.7668L41.1878 49.7877L41.1321 49.8079L41.0694 49.8225L41.0136 49.8365L40.9509 49.8511L40.8951 49.865L40.8463 49.8797L40.7906 49.8866L40.7425 49.8936L40.686 49.9013L40.6373 49.9083L40.5815 49.9152L40.5257 49.9222L40.4421 49.9299H40.3515H40.2609H40.1773H40.0449L39.9194 49.9222L39.8149 49.9152L39.7173 49.9083L39.6127 49.8936L39.5082 49.8866L39.4315 49.8727L39.3479 49.8581L39.2643 49.8372L39.1806 49.8232L39.09 49.7953L39.0064 49.7744L38.9646 49.7605L38.9228 49.7459L38.8809 49.7319L38.8391 49.711L38.7973 49.6971L38.7625 49.6824L38.7207 49.6615L38.6858 49.6476L38.651 49.6267L38.6161 49.6058L38.5743 49.5856L38.5394 49.5647L38.5116 49.5437L38.4837 49.5298L38.4558 49.5089L38.4279 49.488L38.4001 49.4678L38.3722 49.4469L38.3443 49.419L38.3164 49.3981L38.2955 49.3779L38.2676 49.357L38.2467 49.3361L38.2258 49.3082L38.2049 49.2873L38.184 49.2671L38.1631 49.2392L38.1492 49.2183L38.1282 49.1904L38.1073 49.1625L38.0864 49.1416L38.0725 49.1137L38.0516 49.0859L38.0376 49.0587L38.0237 49.0308L38.0028 49.0029L37.9819 48.9674L37.9679 48.9325L37.947 48.8907L37.9331 48.8559L37.9192 48.828L37.9052 48.8001L37.8913 48.7722L37.8843 48.7367L37.8704 48.7095L37.8634 48.6816L37.8564 48.6537L37.8425 48.6182L37.8355 48.5903L37.8286 48.5555L37.8146 48.4927L37.8007 48.43L37.7937 48.3673L37.7798 48.2969V48.2342L37.7728 48.1715V48.1018L36.3789 48.1436C36.3789 49.7814 37.6474 51.1405 39.2852 51.2589V52.5211H40.6791L40.8889 54.5492C39.5221 54.6956 38.1352 54.5004 36.8459 53.9561C32.7339 52.2207 30.8103 47.4745 32.5457 43.3625C33.7166 40.5894 36.2674 38.8045 39.0691 38.4839L39.2852 40.505V41.7456L39.2085 41.7595L39.1319 41.7665L39.0552 41.7811L38.9785 41.8021L38.8949 41.816L38.8182 41.8306L38.7416 41.8508L38.6649 41.8717L38.5882 41.8996L38.5116 41.9205L38.4349 41.9484L38.3582 41.9833L38.2816 42.0111L38.2119 42.046L38.1352 42.0808L38.0655 42.1157L37.9889 42.1645L37.9122 42.207L37.8355 42.2551L37.8007 42.2829L37.7658 42.3108L37.717 42.3457L37.6752 42.3736L37.6334 42.4161L37.5916 42.4509L37.5219 42.5136L37.4522 42.5764L37.3895 42.6391L37.3268 42.7095L37.278 42.7652L37.2292 42.828L37.1804 42.8837L37.1386 42.9464L37.0968 43.0092L37.0549 43.0796L37.0201 43.1423L36.9783 43.212L36.9434 43.2824L36.9156 43.3521L36.8807 43.4218L36.8528 43.4922L36.8319 43.5681L36.804 43.6385L36.7831 43.7145L36.7622 43.7911L36.7483 43.8608L36.7413 43.9243L36.7274 43.994L36.7204 44.0636L36.7134 44.134L36.7065 44.2037L36.6995 44.2741V44.3438V44.4065L36.7065 44.4693V44.5327L36.7134 44.5954L36.7204 44.6581L36.7274 44.7209L36.7344 44.7766L36.7483 44.8394L36.7622 44.9021L36.7762 44.9648L36.7901 45.0282L36.811 45.091L36.8319 45.1606L36.8598 45.2234L36.8807 45.2861L36.9086 45.3495L36.9365 45.4122L36.9643 45.468L36.9992 45.5238L37.0271 45.5795L37.0619 45.6346L37.1037 45.6903L37.1386 45.7461L37.1804 45.8018L37.2152 45.8506L37.264 45.8994L37.3058 45.9545L37.3477 45.997L37.3965 46.0527L37.4452 46.0946L37.501 46.1433L37.5567 46.1921L37.6125 46.2339L37.6683 46.2765L37.7031 46.3036L37.7449 46.3245L37.7798 46.3524L37.8216 46.3733L37.8983 46.4221L37.9749 46.4639L38.0655 46.5058L38.1492 46.5483L38.2398 46.5901L38.3304 46.6256L38.5046 46.6953L38.6719 46.7511L38.8322 46.8068L38.9855 46.8487L39.2712 46.9323L40.1982 47.1623L40.7279 47.3017L40.9021 47.3498L41.0833 47.4055L41.2436 47.4613L41.3481 47.5038L41.4109 47.524L41.4736 47.5519L41.5084 47.5665L41.5433 47.5874L41.5921 47.6076L41.6339 47.6355L41.6764 47.6564L41.7182 47.6843L41.7531 47.7052L41.7956 47.7331L41.8304 47.761L41.8653 47.7812L41.9008 47.8167L41.9148 47.8307L41.9357 47.8453L41.9559 47.8655L41.9705 47.8801L41.9914 47.9003L42.0054 47.9213L42.02 47.9359L42.0339 47.9498L42.0409 47.9568L42.0486 47.9714L42.0625 47.9854L42.0695 48L42.0841 48.0139L42.0911 48.0286L42.105 48.0488L42.1127 48.0697L42.1266 48.0906L42.1336 48.1115L42.1482 48.1317L42.1552 48.1526L42.1622 48.1735L42.1698 48.1945L42.1768 48.2147L42.1838 48.2425L42.1908 48.2635L42.1984 48.2913L42.2054 48.3192L42.2124 48.3401V48.368L42.2193 48.3882V48.4161L42.227 48.437V48.4579V48.4858V48.506V48.5269V48.5757V48.6105V48.6252H42.2228Z" fill="#FFAA1B"/>
<path d="M43.1498 39.069C47.2618 40.8037 49.1853 45.5506 47.443 49.6619C47.1154 50.4355 46.67 51.1604 46.1195 51.7953C45.9306 52.0113 45.7361 52.2135 45.534 52.4086C44.92 52.9801 44.2161 53.461 43.4571 53.8234C42.6347 54.2137 41.7705 54.45 40.8923 54.5482L40.6826 52.5201V51.3074L40.8296 51.2865L40.9202 51.2795L41.0039 51.2656L41.0945 51.251L41.1781 51.2301L41.261 51.2161L41.3523 51.1882L41.4353 51.1673L41.5189 51.1471L41.6095 51.1192L41.6931 51.0837L41.7768 51.0558L41.8604 51.021L41.944 50.9861L42.0277 50.9443L42.1113 50.9088L42.1671 50.8809L42.2152 50.853L42.2709 50.8182L42.3197 50.7903L42.3685 50.7554L42.4242 50.7276L42.4723 50.6927L42.5211 50.6579L42.5629 50.623L42.6054 50.5875L42.6535 50.5526L42.696 50.5178L42.7379 50.4829L42.7804 50.4481L42.8152 50.4056L42.857 50.3707L42.8996 50.3282L42.9344 50.2864L42.9692 50.2446L43.0041 50.2021L43.0396 50.1602L43.0745 50.1177L43.1093 50.0759L43.1372 50.0334L43.186 49.9637L43.2278 49.894L43.2703 49.8236L43.3121 49.7539L43.34 49.6912L43.3679 49.6354L43.4028 49.5727L43.4306 49.5023L43.4453 49.4605L43.4655 49.4117L43.4864 49.356L43.5003 49.3072L43.515 49.2591L43.5289 49.2103L43.5435 49.1615L43.5575 49.1134L43.5721 49.0577L43.5791 49.0089L43.586 48.9601L43.5937 48.9043L43.6007 48.8563L43.6077 48.8075L43.6146 48.7517L43.6223 48.7036V48.6548V48.6061V48.5573V48.5092V48.4534V48.3977L43.6146 48.3489V48.2931L43.6077 48.2374L43.6007 48.1893L43.5937 48.1335L43.586 48.0847L43.5721 48.022L43.5575 47.9663L43.5435 47.9035L43.5289 47.8478L43.5087 47.785L43.4878 47.7293L43.4669 47.6735L43.4467 47.6178L43.4188 47.5481L43.3909 47.4854L43.3554 47.4219L43.3275 47.3592L43.2857 47.2965L43.2508 47.2407L43.2083 47.178L43.1665 47.1223L43.1247 47.0665L43.0822 47.0177L43.0403 46.9696L42.9916 46.9208L42.9497 46.872L42.9009 46.824L42.8522 46.7814L42.7964 46.7334L42.7616 46.7055L42.7197 46.6699L42.6431 46.6149L42.5594 46.5591L42.4758 46.5034L42.4061 46.4608L42.3434 46.419L42.273 46.3765L42.2033 46.3417L42.105 46.2929L42.0075 46.2511L41.9099 46.2092L41.8116 46.1667L41.6583 46.1179L41.4004 46.035L41.1565 45.9583L40.9119 45.8956L39.7758 45.6099L39.5389 45.5471L39.281 45.4705L39.1416 45.4287L39.0092 45.3799L38.8768 45.3311L38.814 45.3032L38.7513 45.2753L38.6956 45.2551L38.6468 45.2272L38.598 45.2063L38.5771 45.1924L38.5492 45.1778L38.5213 45.1569L38.4935 45.1429L38.4795 45.1283L38.4656 45.1213L38.4516 45.1074L38.4377 45.0997L38.4238 45.0858L38.4098 45.0711L38.3959 45.0572L38.3819 45.0502L38.368 45.0356L38.3541 45.0217L38.3401 45.007L38.3262 44.9931L38.3122 44.9722L38.3053 44.9582L38.2913 44.9373L38.2774 44.9227L38.2635 44.9025L38.2495 44.8878L38.2426 44.8676L38.2286 44.853L38.2147 44.8251L38.2007 44.8042L38.1938 44.7763L38.1798 44.7561L38.1659 44.7282L38.1589 44.7073L38.1519 44.6794L38.145 44.6516L38.131 44.6237L38.1241 44.6028V44.5749L38.1171 44.547L38.1101 44.5198V44.492L38.1032 44.4641V44.4362V44.4083L38.0962 44.3805V44.3526V44.3247V44.2968L38.1032 44.262V44.2341V44.2062L38.1101 44.1714L38.1171 44.1435L38.1241 44.108L38.131 44.0731L38.138 44.0452L38.1519 44.0104L38.1589 43.9825L38.1729 43.9477L38.1798 43.933L38.1868 43.9191L38.2007 43.8842L38.2147 43.8564L38.2286 43.8215L38.2495 43.7936L38.2704 43.7657L38.2844 43.7379L38.3053 43.71L38.3262 43.6821L38.3401 43.6612L38.361 43.6403L38.3819 43.6124L38.4028 43.5922L38.4238 43.5713L38.4447 43.5504L38.4656 43.5295L38.4865 43.5093L38.5144 43.4884L38.5353 43.4675L38.5631 43.4472L38.591 43.4263L38.6189 43.4054L38.6468 43.3845L38.6747 43.3706L38.7095 43.3497L38.7374 43.3357L38.7722 43.3148L38.8071 43.3009L38.835 43.2863L38.8698 43.2723L38.9047 43.2577L38.9395 43.2437L38.9674 43.2291L39.0022 43.2221L39.0649 43.2012L39.1346 43.1803L39.1974 43.1664L39.2671 43.1517L39.3368 43.1378L39.3995 43.1308L39.4692 43.1239L39.5877 43.1092L39.6992 43.1023L39.8177 43.0953L39.9292 43.0876H40.0686L40.2079 43.0953L40.2985 43.1023L40.3891 43.1092L40.4798 43.1162L40.5634 43.1308L40.654 43.1448L40.7376 43.1657L40.7801 43.1796L40.822 43.1873L40.8645 43.2012L40.9063 43.2159L40.969 43.2361L40.9969 43.2437L41.0324 43.2577L41.0596 43.2723L41.0952 43.2793L41.123 43.2932L41.1509 43.3079L41.1927 43.3281L41.2276 43.349L41.2701 43.3699L41.3049 43.3908L41.3398 43.411L41.3746 43.4389L41.4095 43.4598L41.4374 43.4877L41.4729 43.5155L41.5008 43.5434L41.5356 43.5713L41.5635 43.5992L41.5914 43.634L41.6193 43.6619L41.6471 43.6968L41.6674 43.7246L41.6883 43.7595L41.7161 43.7874L41.737 43.8229L41.751 43.8577L41.7719 43.8856L41.7928 43.9205L41.8067 43.9553L41.8277 43.9902L41.8416 44.025L41.8625 44.0606L41.8771 44.1024L41.8911 44.1372L41.9057 44.1797L41.9196 44.2146L41.9266 44.2564L41.9413 44.2919L41.9552 44.34L41.9622 44.3888L41.9768 44.4376L41.9838 44.4857L41.9907 44.5345L41.9984 44.5833L42.0054 44.6314L42.0123 44.6801L43.3993 44.5338C43.3156 43.0563 42.1587 41.8714 40.6874 41.746V40.4985H39.2935L39.0775 38.4773C40.4177 38.3233 41.8186 38.5045 43.1498 39.069Z" fill="#FFAA1B"/>
<path d="M53.7469 35.2471C56.4979 35.4078 58.5896 37.7353 58.4272 40.4457C58.3421 41.9193 57.1013 43.0729 55.5982 43.0729H48.9688C47.0041 38.1887 41.4036 35.7991 36.4539 37.7276C33.9723 38.6995 32.0083 40.6273 31.0299 43.0729H24.4076C22.8903 43.0729 21.6495 41.899 21.5715 40.41C21.5715 40.3122 21.5645 40.2214 21.5645 40.1242C21.5645 36.8122 24.2942 34.1214 27.6549 34.1214C27.8038 30.3902 30.2571 27.1201 33.8447 25.9043C38.6448 24.2692 43.8774 26.7847 45.5365 31.5151C46.3667 30.9352 47.3806 30.6557 48.4009 30.7325C50.8052 30.9142 52.5983 32.9825 52.4069 35.3512C52.8465 35.2534 53.3003 35.2254 53.7469 35.2471ZM35.05 28.4623L34.6459 27.1208C32.8592 27.6378 31.3206 28.7698 30.3067 30.314L30.0018 30.8234C29.7182 31.3404 29.4984 31.8924 29.3353 32.4661L29.1581 33.3116L30.5548 33.5282L30.7037 32.8294C30.8385 32.3613 31.0157 31.9141 31.2497 31.4879L31.5049 31.0686C32.3274 29.8102 33.5887 28.8809 35.05 28.4623Z" fill="#C51934"/>
</svg>
