<svg width="80" height="80" viewBox="0 0 80 80" fill="none" xmlns="http://www.w3.org/2000/svg">
<circle cx="40" cy="40" r="40" fill="white"/>
<circle cx="15.5" cy="33.5" r="1.5" fill="#C51934"/>
<circle cx="24.5" cy="60.5" r="1.5" fill="#FFAA1B"/>
<circle cx="56.5" cy="66.5" r="1.5" fill="#C51934"/>
<circle cx="71.5" cy="35.5" r="1.5" fill="#FFAA1B"/>
<circle cx="45.5" cy="11.5" r="1.5" fill="#C51934"/>
<circle cx="37.5" cy="13.5" r="1.5" fill="#FFAA1B"/>
<path d="M48.36 37.8403C48.72 35.8803 50.44 34.4003 52.52 34.4003H53.36C51.28 29.2403 46.4 25.5203 40.64 25.0003C39.96 24.9203 39.36 25.4803 39.36 26.1603V38.9203C39.36 39.5603 38.84 40.0803 38.2 40.0803H25.44C24.76 40.0803 24.24 40.6803 24.28 41.3603C24.96 49.3203 31.8 55.5203 40 55.1603C41.76 55.0803 43.44 54.7203 44.96 54.0803C44.8 53.6003 44.68 53.0803 44.64 52.5603C44.52 51.4003 44.92 50.2403 45.72 49.3603C45.04 48.2803 44.56 47.0803 44.44 45.7603C44.16 42.4803 45.72 39.4403 48.36 37.8403Z" fill="#C51934"/>
<path d="M36.04 35.6V22.88C36.04 22.2 35.44 21.64 34.76 21.72C27.44 22.32 21.64 28.16 21 35.48C20.96 36.16 21.48 36.76 22.16 36.76H34.84C35.52 36.76 36.04 36.24 36.04 35.6Z" fill="#C51934"/>
<path d="M57.76 47.9603C56.84 46.9603 55.52 46.3603 54.16 46.3603H52.76C52.36 46.3603 51.96 46.2003 51.68 45.8803C51.4 45.5603 51.28 45.1603 51.32 44.7203C51.4 43.9603 52.08 43.4003 52.88 43.4003H54.52C54.96 43.4003 55.32 43.7203 55.4 44.1203C55.48 44.4403 55.76 44.6803 56.12 44.6803H58C58.2 44.6803 58.44 44.6003 58.56 44.4403C58.68 44.2803 58.76 44.0803 58.76 43.8803C58.56 41.9203 57.08 40.4003 55.12 40.0803V38.5603C55.12 38.1603 54.8 37.8003 54.36 37.8003H52.48C52.08 37.8003 51.72 38.1203 51.72 38.5603V40.1203C49.28 40.6003 47.64 42.8403 47.88 45.3203C48.12 47.7603 50.32 49.6803 52.88 49.6803H54.08C54.48 49.6803 54.88 49.8403 55.16 50.1603C55.44 50.4803 55.56 50.8803 55.52 51.3203C55.44 52.0403 54.76 52.6403 53.96 52.6403H52.4C51.96 52.6403 51.6 52.3603 51.52 51.9203C51.44 51.6003 51.16 51.3603 50.8 51.3603H48.92C48.72 51.3603 48.48 51.4403 48.36 51.6003C48.24 51.7603 48.16 51.9603 48.16 52.1603C48.36 54.1203 49.84 55.6403 51.8 55.9603V57.4803C51.8 57.8803 52.12 58.2403 52.56 58.2403H54.4C54.8 58.2403 55.16 57.9203 55.16 57.4803V55.8803C57.28 55.4003 58.8 53.7203 59 51.6803C59.12 50.3203 58.68 49.0003 57.76 47.9603Z" fill="#FFAA1B"/>
</svg>
