<svg width="80" height="80" viewBox="0 0 80 80" fill="none" xmlns="http://www.w3.org/2000/svg">
<circle cx="40" cy="40" r="40" fill="white"/>
<circle cx="18.5" cy="21.5" r="1.5" fill="#C51934"/>
<circle cx="31.5" cy="61.5" r="1.5" fill="#FFAA1B"/>
<circle cx="53.5" cy="65.5" r="1.5" fill="#C51934"/>
<circle cx="70.5" cy="41.5" r="1.5" fill="#FFAA1B"/>
<circle cx="60.5" cy="17.5" r="1.5" fill="#C51934"/>
<circle cx="22.5" cy="16.5" r="1.5" fill="#FFAA1B"/>
<path d="M30.6084 35.124C35.4958 35.124 39.1833 37.1785 39.2161 39.9088V39.9409C39.2161 39.9436 39.2146 39.9458 39.2146 39.9485V39.9994C39.1654 42.7206 35.4848 44.7665 30.6084 44.7665C25.7045 44.7665 22.0066 42.6981 21.9983 39.9541V39.9485L21.9976 39.9448C21.9977 37.1964 25.6992 35.124 30.6084 35.124ZM30.6084 46.3321C34.3646 46.3321 37.4589 45.2389 39.2146 43.4907V47.5732C37.8886 49.5371 34.5484 50.798 30.6068 50.798C26.6742 50.798 23.334 49.5393 21.9983 47.5793V43.4867C23.7533 45.2372 26.8493 46.3321 30.6084 46.3321ZM30.6068 56.9274C25.7059 56.9274 22.0052 54.8527 21.9983 52.1029V49.8467C23.951 51.4301 27.0433 52.3636 30.6068 52.3636C34.1741 52.3636 37.2656 51.4301 39.2146 49.8462V52.0991C39.2016 54.8519 35.5009 56.9274 30.6068 56.9274Z" fill="#FFAA1B"/>
<path d="M40.7817 43.8556C42.7345 45.439 45.8268 46.3726 49.3903 46.3726C52.9575 46.3726 56.0491 45.439 57.998 43.8551V47.6423C56.6721 49.6063 53.3318 50.8672 49.3903 50.8672C45.4576 50.8672 42.1174 49.6085 40.7817 47.6485V43.8556ZM40.7817 27.8972C40.7817 25.2094 44.319 23.1732 49.0598 23.0815C49.1706 23.0793 49.2786 23.0728 49.3907 23.0728C53.9943 23.0728 57.5363 24.8945 57.963 27.4242C57.98 27.5317 57.9854 27.6414 57.9906 27.7512C57.9935 27.7993 58.0018 27.8463 58.0025 27.8948C58.0016 30.6429 54.2997 32.7148 49.391 32.7148C44.4927 32.7148 40.7982 30.6514 40.7817 27.9119V27.8972ZM49.391 34.2804C53.1478 34.2804 56.2423 33.1874 57.998 31.4393V35.5215C56.6721 37.4854 53.3318 38.7464 49.3903 38.7464C45.4576 38.7464 42.1174 37.4877 40.7817 35.5277V31.4361C42.5369 33.1861 45.6325 34.2804 49.391 34.2804ZM40.7817 37.795C42.7345 39.3784 45.8268 40.312 49.3903 40.312C52.9575 40.312 56.0491 39.3784 57.998 37.7945V41.5821C56.6721 43.546 53.3318 44.807 49.3903 44.807C45.4576 44.807 42.1174 43.5483 40.7817 41.5883V39.9871C40.7819 39.9729 40.7848 39.9593 40.7848 39.945C40.7848 39.9308 40.7819 39.9172 40.7817 39.903V37.795ZM49.3903 56.9274C44.4893 56.9274 40.7886 54.8527 40.7817 52.1029V49.9158C42.7345 51.4992 45.8268 52.4328 49.3903 52.4328C52.9575 52.4328 56.0491 51.4992 57.998 49.9153V52.0991C57.985 54.8519 54.2843 56.9274 49.3903 56.9274Z" fill="#C51934"/>
</svg>
