<svg width="80" height="80" viewBox="0 0 80 80" fill="none" xmlns="http://www.w3.org/2000/svg">
<circle cx="40" cy="40" r="40" fill="white"/>
<circle cx="15.5" cy="33.5" r="1.5" fill="#C51934"/>
<circle cx="24.5" cy="60.5" r="1.5" fill="#FFAA1B"/>
<circle cx="56.5" cy="66.5" r="1.5" fill="#C51934"/>
<circle cx="71.5" cy="35.5" r="1.5" fill="#FFAA1B"/>
<circle cx="45.5" cy="11.5" r="1.5" fill="#C51934"/>
<circle cx="37.5" cy="13.5" r="1.5" fill="#FFAA1B"/>
<path d="M29.1499 42.9507C30.2462 44.0946 31.6285 44.9526 33.2014 45.4769V35.4197C33.2014 35.1814 33.0107 34.9907 32.7724 34.9907H29.6265C29.3882 34.9907 29.1976 35.1814 29.1976 35.4197V42.9507H29.1499Z" fill="#FFAA1B"/>
<path d="M34.5361 45.8578C35.2034 46.0008 35.8707 46.0485 36.538 46.0485C37.2053 46.0485 37.9203 46.0008 38.5399 45.8578V38.8512C38.5399 38.6128 38.3493 38.4222 38.111 38.4222H34.9651C34.7268 38.4222 34.5361 38.6128 34.5361 38.8512V45.8578Z" fill="#FFAA1B"/>
<path d="M39.9219 45.477C41.4948 44.9527 42.8771 44.047 43.9734 42.9508V31.8926C43.9734 31.6543 43.7827 31.4636 43.5444 31.4636H40.3985C40.1602 31.4636 39.9695 31.6543 39.9695 31.8926V45.477H39.9219Z" fill="#FFAA1B"/>
<path d="M57.4148 51.8162L48.9782 45.1432C50.7895 42.7123 51.8858 39.7571 51.8858 36.5159C51.8858 28.3653 45.0221 21.7876 36.5855 21.7876C28.1489 21.7876 21.2375 28.413 21.2375 36.5636C21.2375 44.7142 28.1012 51.2919 36.5378 51.2919C39.8743 51.2919 42.9249 50.2909 45.4511 48.5273L52.4101 56.9163C52.5531 57.1069 52.7437 57.2976 52.9344 57.4406C54.5073 58.6799 56.7475 58.3939 57.9868 56.821C59.2261 55.248 58.9401 53.0555 57.4148 51.8162ZM43.9735 44.7142C42.9249 45.5721 41.6856 46.2871 40.3033 46.7161C39.1117 47.0974 37.8724 47.3357 36.5378 47.3357C35.3462 47.3357 34.2023 47.1451 33.1537 46.8591C31.6284 46.4301 30.2938 45.6675 29.1022 44.7142C26.719 42.7123 25.1937 39.8048 25.1937 36.5636C25.1937 30.6055 30.2938 25.7914 36.5378 25.7914C42.7819 25.7914 47.882 30.6055 47.882 36.5636C47.882 39.8048 46.3567 42.7599 43.9735 44.7142Z" fill="#C51934"/>
</svg>
