<svg width="80" height="80" viewBox="0 0 80 80" fill="none" xmlns="http://www.w3.org/2000/svg">
<circle cx="40" cy="40" r="40" fill="white"/>
<circle cx="18.5" cy="21.5" r="1.5" fill="#C51934"/>
<circle cx="31.5" cy="61.5" r="1.5" fill="#FFAA1B"/>
<circle cx="53.5" cy="65.5" r="1.5" fill="#C51934"/>
<circle cx="70.5" cy="41.5" r="1.5" fill="#FFAA1B"/>
<circle cx="60.5" cy="17.5" r="1.5" fill="#C51934"/>
<circle cx="22.5" cy="16.5" r="1.5" fill="#FFAA1B"/>
<path d="M55.2202 21.5342H24.7801C24.447 21.5342 24.1318 21.5992 23.8291 21.6928L40.0723 34.2476L56.1712 21.6928C55.8684 21.5992 55.5533 21.5342 55.2202 21.5342Z" fill="#C51934"/>
<path d="M57.9532 23.0449L40.7211 36.4662C40.5288 36.611 40.3005 36.6829 40.0723 36.6829C39.8441 36.6829 39.6159 36.611 39.4236 36.4662L22.0472 23.0449C21.7263 23.5481 21.5342 24.1411 21.5342 24.7809V42.2371C21.5342 44.027 22.9903 45.4831 24.7802 45.4831H39.9075C41.5818 41.6686 45.3848 38.9911 49.8103 38.9911C53.2718 38.9911 56.3243 40.6549 58.3063 43.1923C58.4007 42.8882 58.4662 42.5718 58.4662 42.2371V24.7809C58.4662 24.1411 58.274 23.5481 57.9532 23.0449Z" fill="#C51934"/>
<path d="M49.8102 41.1543C45.0296 41.1543 41.1543 45.0296 41.1543 49.8102C41.1543 54.5908 45.0296 58.4662 49.8102 58.4662C54.5908 58.4662 58.4662 54.5908 58.4662 49.8102C58.4662 45.0296 54.5908 41.1543 49.8102 41.1543ZM54.9032 48.4112L49.4932 53.8212C49.0706 54.2438 48.3858 54.2438 47.9632 53.8212L44.7172 50.5752C44.2946 50.1526 44.2946 49.4678 44.7172 49.0452C45.1399 48.6226 45.8246 48.6226 46.2472 49.0452L48.7282 51.5262L53.3732 46.8812C53.7959 46.4586 54.4806 46.4586 54.9032 46.8812C55.3259 47.3038 55.3259 47.9886 54.9032 48.4112Z" fill="#FFAA1B"/>
</svg>
