<svg width="80" height="80" viewBox="0 0 80 80" fill="none" xmlns="http://www.w3.org/2000/svg">
<circle cx="11.5" cy="36.5" r="1.5" fill="#C51934"/>
<circle cx="26.5" cy="63.5" r="1.5" fill="#FFAA1B"/>
<circle cx="60.5" cy="54.5" r="1.5" fill="#C51934"/>
<circle cx="69.5" cy="44.5" r="1.5" fill="#FFAA1B"/>
<circle cx="61.5" cy="15.5" r="1.5" fill="#C51934"/>
<circle cx="36.5" cy="9.5" r="1.5" fill="#FFAA1B"/>
<path d="M48.3783 38.4756C42.9188 38.4756 38.4768 42.9175 38.4768 48.3771C38.4768 53.8366 42.9188 58.2785 48.3783 58.2785C53.8378 58.2785 58.2798 53.8366 58.2798 48.3771C58.2798 42.9175 53.8378 38.4756 48.3783 38.4756ZM53.3321 45.9535L48.0005 52.0467C47.7233 52.3636 47.3272 52.5524 46.9052 52.5661C46.8885 52.5661 46.8717 52.5661 46.855 52.5661C46.4513 52.5661 46.0644 52.4062 45.778 52.1198L42.7314 49.0732C42.1358 48.4776 42.1358 47.5149 42.7314 46.9193C43.327 46.3236 44.2897 46.3236 44.8853 46.9193L46.7803 48.8143L51.0395 43.9458C51.594 43.3151 52.5567 43.2481 53.1889 43.8026C53.821 44.3571 53.8865 45.3198 53.3321 45.9535Z" fill="#C51934"/>
<path fill-rule="evenodd" clip-rule="evenodd" d="M47.1292 26.3353L34.9428 21.7654C34.76 21.7045 34.5772 21.7045 34.3944 21.7654L22.2079 26.3353C21.9185 26.442 21.7205 26.7314 21.7205 27.0513V36.8462C21.7205 50.6155 34.1556 53.6107 34.4948 53.6924L34.501 53.6939C34.5619 53.7092 34.6076 53.7092 34.6686 53.7092C34.7295 53.7092 34.7752 53.7092 34.8361 53.6939C34.8666 53.6939 35.4607 53.5568 36.3747 53.2065C35.7653 51.7136 35.4302 50.0837 35.4302 48.3776C35.4302 41.4922 40.8227 35.8408 47.6167 35.4447V27.0513C47.6167 26.7314 47.4186 26.442 47.1292 26.3353ZM35.1639 34.0896C36.0973 34.0896 37.0031 34.5013 37.6345 35.1876C38.2659 35.9013 38.5678 36.8072 38.4855 37.7405C38.3482 39.1405 37.3051 40.2935 35.8502 40.6229V41.7209C35.8502 42.0229 35.6031 42.2425 35.3286 42.2425H34.0659C33.7639 42.2425 33.5443 41.9954 33.5443 41.7209V40.6778C32.1992 40.4582 31.1836 39.415 31.0463 38.07C31.0463 37.9327 31.1012 37.7954 31.1836 37.6856C31.2659 37.5758 31.4306 37.5209 31.5679 37.5209H32.8581C33.1051 37.5209 33.2973 37.6856 33.3522 37.9052C33.4071 38.2072 33.6541 38.3994 33.9561 38.3994H35.0267C35.5757 38.3994 36.0424 37.9876 36.0973 37.4935C36.1247 37.1915 36.0424 36.917 35.8502 36.6974C35.658 36.4778 35.3835 36.368 35.109 36.368H34.2855C32.5287 36.368 31.0189 35.0504 30.8541 33.3759C30.6894 31.6739 31.8149 30.1367 33.4894 29.8072V28.7367C33.4894 28.4347 33.7365 28.2151 34.011 28.2151H35.3012C35.6031 28.2151 35.8228 28.4622 35.8228 28.7367V29.7798C37.1678 29.9994 38.1835 31.0425 38.3208 32.3876C38.3208 32.5249 38.2659 32.6621 38.1835 32.7719C38.1012 32.8817 37.9365 32.9366 37.7992 32.9366H36.509C36.262 32.9366 36.0698 32.7719 36.0149 32.5523C35.96 32.2778 35.7129 32.0582 35.411 32.0582H34.2855C33.7365 32.0582 33.2698 32.4425 33.2149 32.9641C33.1875 33.2661 33.2698 33.5406 33.462 33.7602C33.6541 33.9798 33.9286 34.0896 34.2032 34.0896H35.1639Z" fill="#FFAA1B"/>
</svg>
