<svg width="80" height="80" viewBox="0 0 80 80" fill="none" xmlns="http://www.w3.org/2000/svg">
<circle cx="40" cy="40" r="40" fill="white"/>
<circle cx="18.5" cy="21.5" r="1.5" fill="#C51934"/>
<circle cx="31.5" cy="61.5" r="1.5" fill="#FFAA1B"/>
<circle cx="53.5" cy="65.5" r="1.5" fill="#C51934"/>
<circle cx="70.5" cy="41.5" r="1.5" fill="#FFAA1B"/>
<circle cx="60.5" cy="17.5" r="1.5" fill="#C51934"/>
<circle cx="22.5" cy="16.5" r="1.5" fill="#FFAA1B"/>
<path d="M50.3469 21.6055C45.9092 21.6055 42.2993 25.2154 42.2993 29.6531C42.2993 33.7827 48.7558 41.0968 49.4916 41.9176C49.71 42.1591 50.0204 42.2993 50.3469 42.2993C50.6734 42.2993 50.9838 42.1591 51.2023 41.9176C51.9381 41.0968 58.3945 33.7827 58.3945 29.6531C58.3945 25.2154 54.7846 21.6055 50.3469 21.6055ZM50.3469 33.1021C48.4431 33.1021 46.898 31.5569 46.898 29.6531C46.898 27.7492 48.4431 26.2041 50.3469 26.2041C52.2508 26.2041 53.7959 27.7492 53.7959 29.6531C53.7959 31.5569 52.2508 33.1021 50.3469 33.1021Z" fill="#FFAA1B"/>
<path d="M22.3275 35.1117C21.8929 35.2864 21.6055 35.7095 21.6055 36.1808V57.2449C21.6055 57.6266 21.7963 57.983 22.1113 58.1968C22.3045 58.3256 22.5275 58.3945 22.7551 58.3945C22.9 58.3945 23.0448 58.367 23.1828 58.3118L33.1021 54.3431V30.8027L22.3275 35.1117Z" fill="#C51934"/>
<path d="M52.913 43.4533C52.26 44.1799 51.3241 44.5984 50.3469 44.5984C49.3697 44.5984 48.4339 44.1799 47.7809 43.4533C47.5464 43.1935 47.2451 42.8509 46.8979 42.4439V58.3943L57.6726 54.0854C58.1094 53.9129 58.3945 53.4876 58.3945 53.0185V36.1162C56.5114 39.3054 53.9936 42.2485 52.913 43.4533Z" fill="#C51934"/>
<path d="M40.7243 32.9319L35.4014 30.8027V54.3431L44.5986 58.0221V39.5585C43.1294 37.5788 41.5957 35.1944 40.7243 32.9319Z" fill="#C51934"/>
</svg>
