<svg width="80" height="80" viewBox="0 0 80 80" fill="none" xmlns="http://www.w3.org/2000/svg">
<circle cx="40" cy="40" r="40" fill="white"/>
<circle cx="15.5" cy="33.5" r="1.5" fill="#C51934"/>
<circle cx="24.5" cy="60.5" r="1.5" fill="#FFAA1B"/>
<circle cx="56.5" cy="66.5" r="1.5" fill="#C51934"/>
<circle cx="71.5" cy="35.5" r="1.5" fill="#FFAA1B"/>
<circle cx="45.5" cy="11.5" r="1.5" fill="#C51934"/>
<circle cx="37.5" cy="13.5" r="1.5" fill="#FFAA1B"/>
<path d="M55.8906 22.9173C55.8906 22.3293 55.4139 21.8525 54.8259 21.8525H47.9832C47.3952 21.8525 46.9185 22.3293 46.9185 22.9173V27.7062H55.8906V22.9173Z" fill="#C51934"/>
<path d="M44.4863 22.9173C44.4863 22.3293 44.0096 21.8525 43.4216 21.8525H36.5789C35.9909 21.8525 35.5142 22.3293 35.5142 22.9173V27.7062H44.4863V22.9173Z" fill="#C51934"/>
<path d="M33.0815 22.9173C33.0815 22.3293 32.6048 21.8525 32.0168 21.8525H25.1741C24.5861 21.8525 24.1094 22.3293 24.1094 22.9173V27.7062H33.0815V22.9173Z" fill="#C51934"/>
<path d="M22.8931 31.9659H57.1065C57.6945 31.9659 58.1712 31.4892 58.1712 30.9012C58.1712 30.3131 57.6945 29.8364 57.1065 29.8364H22.8931C21.4931 29.8836 21.4728 31.9103 22.8931 31.9659Z" fill="#C51934"/>
<path d="M47.9832 34.397C47.3952 34.397 46.9185 34.8737 46.9185 35.4617V40.2507H55.8906V35.4617C55.8906 34.8737 55.4139 34.397 54.8259 34.397H47.9832Z" fill="#C51934"/>
<path d="M36.5789 34.397C35.9909 34.397 35.5142 34.8737 35.5142 35.4617V40.2507H44.4863V35.4617C44.4863 34.8737 44.0096 34.397 43.4216 34.397H36.5789Z" fill="#C51934"/>
<path d="M25.1741 34.397C24.5861 34.397 24.1094 34.8737 24.1094 35.4617V40.2507H33.0815V35.4617C33.0815 34.8737 32.6048 34.397 32.0168 34.397H25.1741Z" fill="#C51934"/>
<path d="M57.1067 42.3804H55.1455C56.1094 42.878 56.9774 43.536 57.7146 44.3186C58.5596 43.7329 58.1495 42.3831 57.1067 42.3804Z" fill="#C51934"/>
<path d="M46.4594 42.3804H22.8933C22.3053 42.3804 21.8286 42.8571 21.8286 43.4451C21.8286 44.0331 22.3053 44.5098 22.8933 44.5098H43.7152C44.4886 43.6429 45.4181 42.9181 46.4594 42.3804Z" fill="#C51934"/>
<path d="M50.8021 43.4575C46.7388 43.4575 43.4331 46.7632 43.4331 50.8264C43.8036 60.5891 57.8021 60.5864 58.1711 50.8264C58.1711 46.7632 54.8654 43.4575 50.8021 43.4575ZM53.7658 50.1053L50.8183 53.0528C50.4025 53.4686 49.7285 53.4686 49.3127 53.0529L47.8387 51.5795C46.8781 50.5459 48.3092 49.1127 49.3441 50.0735L50.0653 50.7943L52.2601 48.5996C53.2943 47.6389 54.7264 49.0713 53.7658 50.1053Z" fill="#FFAA1B"/>
</svg>
